<svg version="1.1" xmlns="http://www.w3.org/2000/svg" viewBox="0 0 1177.7859715053014 1390.9142597743444" width="2355.571943010603" height="2781.8285195486887">
  <!-- svg-source:excalidraw -->
  
  <defs>
    <style class="style-fonts">
      @font-face {
        font-family: "Virgil";
        src: url("https://unpkg.com/revedraw@1.0.0-alpha.10/dist/excalidraw-assets/Virgil.woff2");
      }
      @font-face {
        font-family: "Cascadia";
        src: url("https://unpkg.com/revedraw@1.0.0-alpha.10/dist/excalidraw-assets/Cascadia.woff2");
      }
    </style>
    
  </defs>
  <rect x="0" y="0" width="1177.7859715053014" height="1390.9142597743444" fill="#ffffff"></rect><g stroke-linecap="round" transform="translate(58.12869262695324 49.5999755859375) rotate(0 76.5 34)"><path d="M17 0 M17 0 C54.98 -3.09, 93.54 -5.55, 136 0 M17 0 C51.91 1.74, 83.64 -0.99, 136 0 M136 0 C143.99 3.06, 150.75 5.78, 153 17 M136 0 C149.7 -1.52, 153.16 4.23, 153 17 M153 17 C154.43 33, 151.63 45.83, 153 51 M153 17 C154.87 28.4, 152.39 39.69, 153 51 M153 51 C154.1 65.66, 150.64 64.2, 136 68 M153 51 C154.22 61.6, 144.96 68.94, 136 68 M136 68 C93.99 65.36, 55.77 69.41, 17 68 M136 68 C103.38 69.4, 74.69 66.73, 17 68 M17 68 C4.67 67.89, 1.15 64.55, 0 51 M17 68 C1.85 67.74, 2.1 65.77, 0 51 M0 51 C-2.28 37.81, -0.41 30.69, 0 17 M0 51 C-1.15 39.73, 0.59 24.05, 0 17 M0 17 C2.66 5.87, 5.25 2.16, 17 0 M0 17 C1.26 4.07, 5.35 -3.76, 17 0" stroke="#1e1e1e" stroke-width="2" fill="none"></path></g><g transform="translate(70.76069641113293 66.0999755859375) rotate(0 63.86799621582031 17.5)"><text x="63.86799621582031" y="0" font-family="HanziPen SC, HanziPen Remote, Virgil, KaiTi, Segoe UI Emoji" font-size="28px" fill="#1e1e1e" text-anchor="middle" style="white-space: pre;" direction="ltr" dominant-baseline="text-before-edge">从机对象1</text></g><g stroke-linecap="round"><g transform="translate(216.1287536621095 78.03000315194515) rotate(0 35.150227289684125 2.6199733031041603)"><path d="M1.02 0.94 C12.72 2.39, 60.7 6.14, 72.17 6.26 M-1.87 -1.02 C9.37 -0.13, 58.93 1.61, 70.45 2.33" stroke="#1e1e1e" stroke-width="1" fill="none"></path></g><g transform="translate(216.1287536621095 78.03000315194515) rotate(0 35.150227289684125 2.6199733031041603)"><path d="M43.15 12.64 C55.42 5.8, 59.42 5.76, 71.94 2.34 M42.57 12.21 C47.28 9, 54.6 8.05, 68.73 1.28" stroke="#1e1e1e" stroke-width="1" fill="none"></path></g><g transform="translate(216.1287536621095 78.03000315194515) rotate(0 35.150227289684125 2.6199733031041603)"><path d="M44.12 -7.86 C55.68 -7.1, 59.31 0.46, 71.94 2.34 M43.53 -8.29 C48.29 -6.97, 55.39 -3.39, 68.73 1.28" stroke="#1e1e1e" stroke-width="1" fill="none"></path></g></g><mask></mask><g stroke-linecap="round"><g transform="translate(448.1287536621095 82.40841445949417) rotate(0 29.52665180768821 1.062567638545545)"><path d="M0.59 1.07 C10.75 1.05, 51.05 0.36, 61.59 0.42 M-2.54 -0.82 C7.2 -0.59, 48.39 2.14, 59.35 2.94" stroke="#1e1e1e" stroke-width="1" fill="none"></path></g><g transform="translate(448.1287536621095 82.40841445949417) rotate(0 29.52665180768821 1.062567638545545)"><path d="M32.05 11.24 C36.85 11.67, 47.56 7.12, 56.12 -0.54 M30.4 11.42 C39.18 10.12, 47.25 8.1, 60.95 1.63" stroke="#1e1e1e" stroke-width="1" fill="none"></path></g><g transform="translate(448.1287536621095 82.40841445949417) rotate(0 29.52665180768821 1.062567638545545)"><path d="M33.46 -9.23 C37.88 -2.22, 48.14 -0.19, 56.12 -0.54 M31.8 -9.05 C40.16 -4.64, 47.83 -0.93, 60.95 1.63" stroke="#1e1e1e" stroke-width="1" fill="none"></path></g></g><mask></mask><g stroke-linecap="round"><g transform="translate(675.328826904297 83.60000610351562) rotate(0 25.11954020548609 -0.6407772768288851)"><path d="M1.38 1.5 C9.99 1.32, 43.39 -2.25, 51.55 -2.78 M-1.31 -0.15 C7.18 0.34, 42.36 2.11, 50.8 1.07" stroke="#1e1e1e" stroke-width="1" fill="none"></path></g><g transform="translate(675.328826904297 83.60000610351562) rotate(0 25.11954020548609 -0.6407772768288851)"><path d="M30.16 13.85 C35.49 9.24, 43.84 5.91, 49.73 4.68 M28 8.09 C36.78 6.12, 43.63 1.28, 51.46 1.75" stroke="#1e1e1e" stroke-width="1" fill="none"></path></g><g transform="translate(675.328826904297 83.60000610351562) rotate(0 25.11954020548609 -0.6407772768288851)"><path d="M29.8 -2.87 C35.04 -2.51, 43.49 -0.87, 49.73 4.68 M27.64 -8.63 C36.55 -4.27, 43.53 -2.78, 51.46 1.75" stroke="#1e1e1e" stroke-width="1" fill="none"></path></g></g><mask></mask><g transform="translate(735.328826904297 75.60000610351562) rotate(0 28.671981811523438 17.5)"><text x="0" y="0" font-family="HanziPen SC, HanziPen Remote, Virgil, KaiTi, Segoe UI Emoji" font-size="28px" fill="#1e1e1e" text-anchor="start" style="white-space: pre;" direction="ltr" dominant-baseline="text-before-edge">NULL</text></g><g stroke-linecap="round"><g transform="translate(92.12875366210949 112.39999389648438) rotate(0 -8.053074868023401 49.35464122664183)"><path d="M-1.98 2.6 C-4.44 18.8, -13.91 82.04, -16 97.17 M2.14 1.54 C-0.58 16.96, -15.29 77.57, -18.25 93.22" stroke="#1e1e1e" stroke-width="1" fill="none"></path></g></g><mask></mask><g stroke-linecap="round" transform="translate(61.72872924804699 209.20001220703125) rotate(0 178 154.80001831054688)"><path d="M32 0 M32 0 C146.96 2.13, 260.99 3.91, 324 0 M32 0 C122.27 2.57, 215.36 2.1, 324 0 M324 0 C344.18 -1.7, 357.65 8.07, 356 32 M324 0 C347.17 4.07, 357.97 6.27, 356 32 M356 32 C358.03 120.52, 358.08 215.02, 356 277.6 M356 32 C360.55 106.81, 359.21 181.83, 356 277.6 M356 277.6 C357.87 296.06, 348.41 312.17, 324 309.6 M356 277.6 C358.54 296.06, 343.1 311.41, 324 309.6 M324 309.6 C216.52 311.3, 112.35 313.1, 32 309.6 M324 309.6 C226.97 307.63, 129.29 307.99, 32 309.6 M32 309.6 C7.41 306.3, -3.69 301.77, 0 277.6 M32 309.6 C10.68 310.55, -3.69 296.75, 0 277.6 M0 277.6 C1.06 206.32, -2.07 131.96, 0 32 M0 277.6 C1.98 199.12, 3.16 122.53, 0 32 M0 32 C1.34 13.65, 12.21 2.32, 32 0 M0 32 C-0.41 14.84, 7.33 2.02, 32 0" stroke="#1e1e1e" stroke-width="1" fill="none"></path></g><g stroke-linecap="round"><g transform="translate(64.12875366210949 271.6000061035156) rotate(0 179.77229737490416 0.8444152966099523)"><path d="M1.57 -2.43 C60.78 -1.98, 296.57 -0.32, 355.66 0.38 M-1.03 2.42 C58.97 3.53, 300.12 4.73, 360.57 3.78" stroke="#1e1e1e" stroke-width="1" fill="none"></path></g></g><mask></mask><g stroke-linecap="round"><g transform="translate(62.52877807617199 322.79998779296875) rotate(0 177.991615752466 2.134263923466193)"><path d="M0.97 1.43 C60.89 1.7, 298.76 0.99, 357.93 1.71 M-1.95 -0.26 C57.91 0.35, 297.38 4.22, 356.75 4.53" stroke="#1e1e1e" stroke-width="1" fill="none"></path></g></g><mask></mask><g stroke-linecap="round"><g transform="translate(62.52877807617199 383.5999755859375) rotate(0 180.74259497728198 0.2880992195383101)"><path d="M-0.88 -0.89 C58.57 0.06, 297.41 3.8, 357.1 4.41 M3.84 -3.84 C64.13 -3.63, 302.49 -1.52, 362.36 0.06" stroke="#1e1e1e" stroke-width="1" fill="none"></path></g></g><mask></mask><g stroke-linecap="round"><g transform="translate(64.12875366210949 424.4000244140625) rotate(0 177.82682291913778 5.50812924176455)"><path d="M1.66 1.85 C60.7 3.13, 297.94 6.69, 356.53 7.64 M-0.88 0.38 C57.62 2.05, 294.68 9.05, 354.58 10.64" stroke="#1e1e1e" stroke-width="1" fill="none"></path></g></g><mask></mask><g stroke-linecap="round"><g transform="translate(63.32876586914074 462.79998779296875) rotate(0 177.4736604722962 8.082047913670522)"><path d="M2.48 1.95 C61.27 4.41, 295.49 10.88, 354.57 12.84 M0.38 0.54 C58.58 3.52, 292.7 12.97, 351.99 15.63" stroke="#1e1e1e" stroke-width="1" fill="none"></path></g></g><mask></mask><g stroke-linecap="round" transform="translate(149.72879028320324 493.20001220703125) rotate(0 5.5999755859375 4.79998779296875)"><path d="M4.48 -0.88 C5.59 -0.99, 9.14 0.46, 9.99 1.43 C10.85 2.39, 9.9 3.85, 9.62 4.9 C9.34 5.95, 8.82 6.66, 8.31 7.74 C7.79 8.83, 7.53 11.37, 6.54 11.4 C5.55 11.44, 3.62 8.99, 2.38 7.94 C1.14 6.88, -0.28 5.59, -0.91 5.09 C-1.53 4.58, -1.75 5.77, -1.37 4.89 C-0.99 4.02, 0.14 0.79, 1.36 -0.16 C2.57 -1.12, 4.52 -1.33, 5.89 -0.81 C7.26 -0.29, 9.5 2.49, 9.59 2.96" stroke="none" stroke-width="0" fill="#1e1e1e"></path><path d="M8.72 1.67 C9.59 2.61, 12.16 3.95, 12.41 5.04 C12.67 6.13, 11.05 7.39, 10.25 8.21 C9.45 9.03, 9.03 9.71, 7.62 9.96 C6.22 10.21, 2.75 10.34, 1.81 9.68 C0.88 9.03, 2.45 7.47, 1.99 6.05 C1.53 4.63, -0.92 1.78, -0.96 1.18 C-1 0.57, 0.34 2.29, 1.75 2.41 C3.15 2.52, 5.82 1.85, 7.46 1.88 C9.11 1.92, 11.34 2.46, 11.6 2.61 C11.86 2.76, 9.25 2.54, 9.03 2.77" stroke="#1e1e1e" stroke-width="1.5" fill="none" stroke-dasharray="8 9"></path></g><g transform="translate(119.32876586914074 167.5999755859375) rotate(0 56 17.5)"><text x="0" y="0" font-family="HanziPen SC, HanziPen Remote, Virgil, KaiTi, Segoe UI Emoji" font-size="28px" fill="#1e1e1e" text-anchor="start" style="white-space: pre;" direction="ltr" dominant-baseline="text-before-edge">虚拟映射</text></g><g stroke-linecap="round" transform="translate(292.42874145507824 49.79998779296875) rotate(0 76.5 34)"><path d="M17 0 M17 0 C46.56 4.54, 76.31 5.18, 136 0 M17 0 C59.2 -3.07, 97.12 -0.39, 136 0 M136 0 C147.67 -1.63, 153.78 5.85, 153 17 M136 0 C146.92 -0.37, 152.61 4.42, 153 17 M153 17 C157.17 32.35, 151.23 37.06, 153 51 M153 17 C152.05 24.42, 153.98 35.4, 153 51 M153 51 C152.6 60.65, 151.19 69.45, 136 68 M153 51 C149.6 65.12, 149.44 64.94, 136 68 M136 68 C92.21 66.65, 51.26 67.63, 17 68 M136 68 C106.81 67.13, 74.45 68.38, 17 68 M17 68 C8.51 70.26, -3.06 61.14, 0 51 M17 68 C2.57 65.55, -3.59 59.13, 0 51 M0 51 C3.2 46.53, -1.36 34.29, 0 17 M0 51 C-1.13 41.47, -1.29 27.88, 0 17 M0 17 C-1.54 3.23, 7.56 -3.36, 17 0 M0 17 C2.12 4.84, 10.16 0.64, 17 0" stroke="#1e1e1e" stroke-width="2" fill="none"></path></g><g transform="translate(305.0607452392579 66.29998779296875) rotate(0 63.86799621582031 17.5)"><text x="63.86799621582031" y="0" font-family="HanziPen SC, HanziPen Remote, Virgil, KaiTi, Segoe UI Emoji" font-size="28px" fill="#1e1e1e" text-anchor="middle" style="white-space: pre;" direction="ltr" dominant-baseline="text-before-edge">从机对象2</text></g><g stroke-linecap="round" transform="translate(514.2288513183595 50.79998779296875) rotate(0 76.5 34)"><path d="M17 0 M17 0 C59.18 4.25, 92.92 1.06, 136 0 M17 0 C57.84 -2.73, 98.05 -0.68, 136 0 M136 0 C149.92 -2.92, 153.59 3.13, 153 17 M136 0 C146.28 -3.56, 154.64 8.32, 153 17 M153 17 C155.18 25.47, 153.66 36.16, 153 51 M153 17 C152.72 30.14, 151.17 39.52, 153 51 M153 51 C153.46 61.4, 151.13 70.31, 136 68 M153 51 C157.42 63.37, 148.77 68.41, 136 68 M136 68 C108.34 69.95, 72.23 65.09, 17 68 M136 68 C91.84 69.27, 44.28 68, 17 68 M17 68 C5.42 71.04, 0.86 63.12, 0 51 M17 68 C6.63 69.76, -0.01 58.99, 0 51 M0 51 C-2.98 34.59, -0.56 24.82, 0 17 M0 51 C0.62 43.18, 0.62 34.73, 0 17 M0 17 C3.19 3.05, 7.98 -2.1, 17 0 M0 17 C-1.69 6.04, 3.55 -1.84, 17 0" stroke="#1e1e1e" stroke-width="2" fill="none"></path></g><g transform="translate(526.8608551025392 67.29998779296875) rotate(0 63.86799621582031 17.5)"><text x="63.86799621582031" y="0" font-family="HanziPen SC, HanziPen Remote, Virgil, KaiTi, Segoe UI Emoji" font-size="28px" fill="#1e1e1e" text-anchor="middle" style="white-space: pre;" direction="ltr" dominant-baseline="text-before-edge">从机对象3</text></g><g stroke-linecap="round" transform="translate(176.92874145507824 494.79998779296875) rotate(0 5.5999755859375 4.79998779296875)"><path d="M9.89 1.73 C10.91 2.13, 10.9 1.46, 11.08 2.27 C11.25 3.08, 11.26 5.64, 10.93 6.61 C10.61 7.59, 10.1 7.73, 9.13 8.1 C8.15 8.47, 6.27 9.11, 5.09 8.83 C3.9 8.54, 2.74 7.5, 2.01 6.38 C1.28 5.26, 0.42 3.35, 0.7 2.11 C0.99 0.88, 2.85 -0.85, 3.69 -1.02 C4.53 -1.19, 4.33 0.8, 5.76 1.11 C7.2 1.42, 11.11 0.33, 12.3 0.85 C13.48 1.37, 13.15 3.99, 12.88 4.25" stroke="none" stroke-width="0" fill="#1e1e1e"></path><path d="M4.98 1.29 C6.2 1.25, 7.39 2.32, 8.71 2.58 C10.02 2.85, 12.65 2.27, 12.87 2.86 C13.1 3.45, 10.95 5.41, 10.06 6.14 C9.17 6.87, 8.62 6.74, 7.52 7.24 C6.41 7.75, 4.56 9.33, 3.41 9.19 C2.26 9.05, 1.49 7.02, 0.6 6.41 C-0.28 5.79, -1.91 6.64, -1.9 5.51 C-1.88 4.38, -0.36 0.48, 0.69 -0.39 C1.73 -1.25, 3.31 0.35, 4.36 0.32 C5.41 0.28, 6.42 -0.55, 6.97 -0.6" stroke="#1e1e1e" stroke-width="1.5" fill="none" stroke-dasharray="8 9"></path></g><g stroke-linecap="round" transform="translate(206.72879028320324 496.4000244140625) rotate(0 5.5999755859375 4.79998779296875)"><path d="M2.64 0.38 C3.54 -0.64, 4.89 0.32, 5.85 0.25 C6.81 0.18, 7.87 -0.51, 8.41 -0.03 C8.95 0.45, 8.48 2.23, 9.09 3.13 C9.71 4.02, 11.89 4.69, 12.09 5.35 C12.29 6, 11.3 6.53, 10.29 7.07 C9.28 7.62, 7.53 8.62, 6.06 8.62 C4.59 8.62, 2.78 7.37, 1.47 7.07 C0.16 6.77, -1.86 7.68, -1.81 6.8 C-1.76 5.91, 0.74 2.6, 1.78 1.76 C2.83 0.92, 4.16 2.14, 4.48 1.77" stroke="none" stroke-width="0" fill="#1e1e1e"></path><path d="M6.2 0.8 C7.28 1.34, 9.09 1.08, 10.12 1.89 C11.16 2.71, 12.88 4.58, 12.41 5.69 C11.93 6.81, 8.27 8.11, 7.28 8.59 C6.28 9.08, 7.51 8.6, 6.45 8.59 C5.38 8.58, 1.91 9.13, 0.91 8.53 C-0.1 7.93, 0.73 5.98, 0.43 4.98 C0.14 3.99, -1.36 3.07, -0.85 2.58 C-0.34 2.09, 2.15 2.07, 3.5 2.04 C4.85 2.02, 6.42 2.35, 7.25 2.41 C8.08 2.48, 8.42 2.55, 8.49 2.43" stroke="#1e1e1e" stroke-width="1.5" fill="none" stroke-dasharray="8 9"></path></g><g stroke-linecap="round" transform="translate(237.9288024902345 495.5999755859375) rotate(0 5.5999755859375 4.79998779296875)"><path d="M6.57 -1.47 C8.05 -1.35, 11.07 0.18, 12.04 1.09 C13.01 1.99, 12.64 2.68, 12.4 3.97 C12.16 5.25, 12 8.15, 10.6 8.8 C9.2 9.45, 5.39 8.1, 3.97 7.86 C2.55 7.61, 3.03 7.94, 2.07 7.35 C1.11 6.77, -1.27 5.38, -1.8 4.34 C-2.32 3.3, -2.03 1.63, -1.05 1.13 C-0.07 0.62, 2.23 1.46, 4.09 1.31 C5.95 1.16, 9.24 0.14, 10.09 0.22 C10.94 0.3, 9.38 1.37, 9.19 1.81" stroke="none" stroke-width="0" fill="#1e1e1e"></path><path d="M7.43 -0.71 C8.89 -0.45, 11.03 -0.32, 11.94 0.56 C12.85 1.44, 13.02 3.45, 12.89 4.6 C12.77 5.74, 12.16 6.88, 11.16 7.44 C10.16 8, 8.1 8.06, 6.92 7.97 C5.74 7.88, 5.19 6.99, 4.06 6.89 C2.92 6.79, 0.43 8.32, 0.11 7.37 C-0.21 6.43, 1.34 2.35, 2.12 1.22 C2.91 0.09, 3.51 0.66, 4.82 0.61 C6.14 0.55, 9.27 0.31, 10.03 0.89 C10.79 1.46, 9.36 4, 9.38 4.04" stroke="#1e1e1e" stroke-width="1.5" fill="none" stroke-dasharray="8 9"></path></g><g stroke-linecap="round" transform="translate(262.528778076172 495.39996337890625) rotate(0 5.5999755859375 4.79998779296875)"><path d="M-0.51 0.65 C-0.21 -0.16, 1.19 -1.18, 2.7 -1 C4.21 -0.81, 6.97 1.16, 8.56 1.75 C10.15 2.35, 11.9 1.74, 12.23 2.58 C12.57 3.41, 11.12 5.45, 10.56 6.79 C10.01 8.12, 9.76 9.98, 8.9 10.58 C8.05 11.19, 6.76 11.14, 5.44 10.42 C4.11 9.71, 2.14 6.95, 0.95 6.29 C-0.24 5.64, -1.69 7.34, -1.69 6.51 C-1.68 5.67, 0.17 2.55, 0.98 1.28 C1.79 0.02, 2.97 -1.36, 3.17 -1.11" stroke="none" stroke-width="0" fill="#1e1e1e"></path><path d="M1.46 2.53 C2.25 1.83, 5.26 -1.48, 6.78 -1.75 C8.31 -2.02, 9.82 0.09, 10.62 0.9 C11.42 1.71, 11.81 2.03, 11.57 3.09 C11.33 4.16, 9.59 6.36, 9.17 7.27 C8.75 8.18, 9.65 8.46, 9.05 8.56 C8.44 8.66, 6.75 8.18, 5.55 7.86 C4.34 7.53, 2.8 7.38, 1.83 6.61 C0.87 5.83, -0.38 4.04, -0.26 3.2 C-0.14 2.36, 1.49 1.82, 2.53 1.57 C3.57 1.33, 5.95 1.62, 5.96 1.72" stroke="#1e1e1e" stroke-width="1.5" fill="none" stroke-dasharray="8 9"></path></g><g stroke-linecap="round" transform="translate(289.528778076172 495.60003662109375) rotate(0 5.5999755859375 4.79998779296875)"><path d="M6.28 -1.28 C7.49 -1.09, 11.51 0.26, 12.35 1.43 C13.2 2.6, 12.2 4.61, 11.36 5.76 C10.52 6.9, 8.07 7.68, 7.29 8.29 C6.52 8.89, 7.43 9.42, 6.69 9.4 C5.95 9.38, 3.67 8.59, 2.84 8.19 C2.01 7.78, 1.87 8.12, 1.69 6.97 C1.51 5.83, 1.29 2.53, 1.75 1.32 C2.2 0.11, 3.02 -0.86, 4.41 -0.28 C5.8 0.3, 9.49 3.28, 10.1 4.78 C10.71 6.28, 7.67 8.51, 8.06 8.7" stroke="none" stroke-width="0" fill="#1e1e1e"></path><path d="M8.15 0.79 C9.14 0.92, 9.25 1.23, 9.89 2.04 C10.52 2.84, 12.11 4.71, 11.96 5.6 C11.8 6.49, 10.04 6.72, 8.95 7.38 C7.86 8.03, 6.98 9.82, 5.4 9.51 C3.82 9.21, 0.3 6.61, -0.54 5.54 C-1.39 4.47, 0.25 3.99, 0.35 3.09 C0.46 2.19, -0.45 0.82, 0.08 0.13 C0.62 -0.57, 1.75 -1.7, 3.55 -1.06 C5.34 -0.43, 9.37 3.03, 10.85 3.94 C12.34 4.86, 12.6 4.54, 12.45 4.44" stroke="#1e1e1e" stroke-width="1.5" fill="none" stroke-dasharray="8 9"></path></g><g stroke-linecap="round" transform="translate(660.1287536621095 193.39999389648438) rotate(0 106.4000244140625 171.1999969482422)"><path d="M-0.47 2.74 C54.61 1.97, 114.84 5.9, 213.26 0.13 M0.58 -1.15 C72.99 2.37, 149.85 2.13, 212.52 1.15 M212.82 -0.76 C211.25 113.14, 209.54 228.81, 213.18 342.93 M213.12 1.18 C214.39 113.61, 214.8 225.32, 213.8 342.03 M209.54 342.04 C135.26 341.15, 49.48 343.84, -3.04 341.38 M211.9 341.38 C146.3 343.73, 78.01 343.96, -1.75 343.75 M2.14 340.31 C-0.36 267.3, -1.41 188.84, -0.71 0.99 M0.47 342.71 C1.57 235.61, 2.37 129.58, 0.48 0.73" stroke="#1e1e1e" stroke-width="1" fill="none"></path></g><g transform="translate(696.1287536621095 163.79998779296875) rotate(0 56 17.5)"><text x="0" y="0" font-family="HanziPen SC, HanziPen Remote, Virgil, KaiTi, Segoe UI Emoji" font-size="28px" fill="#1e1e1e" text-anchor="start" style="white-space: pre;" direction="ltr" dominant-baseline="text-before-edge">实际地址</text></g><g stroke-linecap="round"><g transform="translate(348.1287536621095 235) rotate(0 145.8928415580437 2.2062527421395544)"><path d="M-2.21 0.87 C63.46 6.54, 124.31 4.31, 293.75 3.84 M0.81 1.43 C77.52 -1.1, 155.08 -1.26, 294 4.37" stroke="#1e1e1e" stroke-width="1" fill="none"></path></g><g transform="translate(348.1287536621095 235) rotate(0 145.8928415580437 2.2062527421395544)"><path d="M262.5 14.88 C274.03 15.77, 278.98 9.68, 291.88 4.16 M266.58 15.64 C273.37 12.01, 281.07 7.93, 292.22 4.88" stroke="#1e1e1e" stroke-width="1" fill="none"></path></g><g transform="translate(348.1287536621095 235) rotate(0 145.8928415580437 2.2062527421395544)"><path d="M263.17 -5.63 C274.44 -0.48, 279.25 -2.28, 291.88 4.16 M267.25 -4.87 C273.49 -3.12, 281.01 -1.82, 292.22 4.88" stroke="#1e1e1e" stroke-width="1" fill="none"></path></g></g><mask></mask><g stroke-linecap="round"><g transform="translate(366.528778076172 291.79998779296875) rotate(0 140.08528134841316 80.97419597563453)"><path d="M-0.62 -2.34 C89.19 52.16, 178.56 100.17, 281.48 162.39 M-1.31 -0.87 C79.91 43.02, 156.48 89.59, 281.25 164.29" stroke="#1e1e1e" stroke-width="1" fill="none"></path></g><g transform="translate(366.528778076172 291.79998779296875) rotate(0 140.08528134841316 80.97419597563453)"><path d="M250.89 155.22 C263.13 163.41, 272.5 159.34, 282.07 162.45 M249.9 157.35 C261.06 159.28, 266.57 162.11, 281.73 165.2" stroke="#1e1e1e" stroke-width="1" fill="none"></path></g><g transform="translate(366.528778076172 291.79998779296875) rotate(0 140.08528134841316 80.97419597563453)"><path d="M261.43 137.62 C270.07 151.52, 276.09 153.06, 282.07 162.45 M260.44 139.75 C268.78 146.71, 271.34 154.47, 281.73 165.2" stroke="#1e1e1e" stroke-width="1" fill="none"></path></g></g><mask></mask><g stroke-linecap="round"><g transform="translate(400.92874145507824 363.79998779296875) rotate(0 116.75851093792335 -27.31742726132879)"><path d="M-3.29 2.04 C69.17 -14.5, 134.75 -33.37, 232.98 -51.99 M-0.75 0.57 C84.41 -22.83, 170.8 -42.9, 236.8 -56.68" stroke="#1e1e1e" stroke-width="1" fill="none"></path></g><g transform="translate(400.92874145507824 363.79998779296875) rotate(0 116.75851093792335 -27.31742726132879)"><path d="M207.48 -38.19 C222.22 -43.1, 229.11 -51.82, 233.16 -52.94 M210.54 -39.96 C219.23 -47.79, 229.7 -53.78, 237.77 -58.59" stroke="#1e1e1e" stroke-width="1" fill="none"></path></g><g transform="translate(400.92874145507824 363.79998779296875) rotate(0 116.75851093792335 -27.31742726132879)"><path d="M203.11 -58.24 C218.84 -57.59, 226.94 -60.72, 233.16 -52.94 M206.17 -60.01 C216.29 -60.64, 228.34 -59.38, 237.77 -58.59" stroke="#1e1e1e" stroke-width="1" fill="none"></path></g></g><mask></mask><g stroke-linecap="round"><g transform="translate(397.72879028320324 419) rotate(0 126.99107458435014 -8.665514032028852)"><path d="M-0.23 0.2 C69.14 -3.87, 139.25 -9.3, 254.51 -17.38 M-0.53 0.87 C77.29 -5.77, 154.83 -12.84, 251.18 -18.2" stroke="#1e1e1e" stroke-width="1" fill="none"></path></g><g transform="translate(397.72879028320324 419) rotate(0 126.99107458435014 -8.665514032028852)"><path d="M223.41 -5.92 C229 -8.65, 235.48 -12.27, 253.71 -16.66 M223.05 -5.1 C231.73 -10.1, 240.16 -15.46, 249.61 -17.67" stroke="#1e1e1e" stroke-width="1" fill="none"></path></g><g transform="translate(397.72879028320324 419) rotate(0 126.99107458435014 -8.665514032028852)"><path d="M222.11 -26.4 C228.16 -23.36, 235 -21.2, 253.71 -16.66 M221.75 -25.58 C230.56 -24.29, 239.38 -23.35, 249.61 -17.67" stroke="#1e1e1e" stroke-width="1" fill="none"></path></g></g><mask></mask><g stroke-linecap="round"><g transform="translate(393.72879028320324 463) rotate(0 123.83199208627133 -49.59333140459884)"><path d="M0.64 2.61 C78.67 -33.57, 155.67 -67.73, 247.65 -100.38 M0.01 -1.02 C76 -26.36, 149.09 -56.62, 246.89 -101.8" stroke="#1e1e1e" stroke-width="1" fill="none"></path></g><g transform="translate(393.72879028320324 463) rotate(0 123.83199208627133 -49.59333140459884)"><path d="M226.2 -77.58 C233.4 -84.86, 237.94 -93.91, 248.62 -101.12 M225.41 -82.17 C233.69 -85.86, 238.47 -91.87, 247.67 -102.91" stroke="#1e1e1e" stroke-width="1" fill="none"></path></g><g transform="translate(393.72879028320324 463) rotate(0 123.83199208627133 -49.59333140459884)"><path d="M217.78 -96.29 C228 -97.75, 235.23 -100.81, 248.62 -101.12 M216.99 -100.88 C227.78 -98.77, 235.11 -99.12, 247.67 -102.91" stroke="#1e1e1e" stroke-width="1" fill="none"></path></g></g><mask></mask><g transform="translate(79.09305681501127 215.94281005859318) rotate(0 77.94862365722656 29.928545270647305)"><text x="0" y="0" font-family="HanziPen SC, HanziPen Remote, Virgil, KaiTi, Segoe UI Emoji" font-size="47.885672433035694px" fill="#1e1e1e" text-anchor="start" style="white-space: pre;" direction="ltr" dominant-baseline="text-before-edge">0x0000</text></g><g transform="translate(81.63027425128092 273.72858537946377) rotate(0 74.85543823242188 28.737930938591973)"><text x="0" y="0" font-family="HanziPen SC, HanziPen Remote, Virgil, KaiTi, Segoe UI Emoji" font-size="45.98068950174715px" fill="#1e1e1e" text-anchor="start" style="white-space: pre;" direction="ltr" dominant-baseline="text-before-edge">0x0001</text></g><g transform="translate(76.05189732142861 325.4905759670995) rotate(0 74.85543823242188 28.737930938591944)"><text x="0" y="0" font-family="HanziPen SC, HanziPen Remote, Virgil, KaiTi, Segoe UI Emoji" font-size="45.98068950174715px" fill="#1e1e1e" text-anchor="start" style="white-space: pre;" direction="ltr" dominant-baseline="text-before-edge">0x0002</text></g><g transform="translate(75.47186933244978 377.4906108443316) rotate(0 74.85543823242188 28.737930938591944)"><text x="0" y="0" font-family="HanziPen SC, HanziPen Remote, Virgil, KaiTi, Segoe UI Emoji" font-size="45.98068950174715px" fill="#1e1e1e" text-anchor="start" style="white-space: pre;" direction="ltr" dominant-baseline="text-before-edge">0x0003</text></g><g transform="translate(84.90049307686951 422.6334331099565) rotate(0 74.85543823242188 28.737930938591944)"><text x="0" y="0" font-family="HanziPen SC, HanziPen Remote, Virgil, KaiTi, Segoe UI Emoji" font-size="45.98068950174715px" fill="#1e1e1e" text-anchor="start" style="white-space: pre;" direction="ltr" dominant-baseline="text-before-edge">0x0004</text></g><g transform="translate(669.4804600306919 211.72855050223154) rotate(0 86.16505432128906 19.57017787254182)"><text x="0" y="0" font-family="HanziPen SC, HanziPen Remote, Virgil, KaiTi, Segoe UI Emoji" font-size="31.312284596066906px" fill="#1e1e1e" text-anchor="start" style="white-space: pre;" direction="ltr" dominant-baseline="text-before-edge">0x80002042</text></g><g transform="translate(669.4530552455357 287.80120361462275) rotate(0 86.16505432128906 19.57017787254182)"><text x="0" y="0" font-family="HanziPen SC, HanziPen Remote, Virgil, KaiTi, Segoe UI Emoji" font-size="31.312284596066906px" fill="#1e1e1e" text-anchor="start" style="white-space: pre;" direction="ltr" dominant-baseline="text-before-edge">0x80003122</text></g><g transform="translate(670.8773651123046 344.0869527775692) rotate(0 86.16505432128906 19.57017787254182)"><text x="0" y="0" font-family="HanziPen SC, HanziPen Remote, Virgil, KaiTi, Segoe UI Emoji" font-size="31.312284596066906px" fill="#1e1e1e" text-anchor="start" style="white-space: pre;" direction="ltr" dominant-baseline="text-before-edge">0x80003682</text></g><g transform="translate(672.8773999895367 387.5154718902925) rotate(0 86.16505432128906 19.57017787254182)"><text x="0" y="0" font-family="HanziPen SC, HanziPen Remote, Virgil, KaiTi, Segoe UI Emoji" font-size="31.312284596066906px" fill="#1e1e1e" text-anchor="start" style="white-space: pre;" direction="ltr" dominant-baseline="text-before-edge">0x80003684</text></g><g transform="translate(672.3057621547154 440.65834647176564) rotate(0 86.16505432128906 19.57017787254182)"><text x="0" y="0" font-family="HanziPen SC, HanziPen Remote, Virgil, KaiTi, Segoe UI Emoji" font-size="31.312284596066906px" fill="#1e1e1e" text-anchor="start" style="white-space: pre;" direction="ltr" dominant-baseline="text-before-edge">0x80003844</text></g><g transform="translate(104.62868390764515 1038.7999529157369) rotate(0 34.047996520996094 17.5)"><text x="0" y="0" font-family="HanziPen SC, HanziPen Remote, Virgil, KaiTi, Segoe UI Emoji" font-size="28px" fill="#1e1e1e" text-anchor="start" style="white-space: pre;" direction="ltr" dominant-baseline="text-before-edge">变量a</text></g><g transform="translate(102.34291730608265 1097.0856933593755) rotate(0 34.579994201660156 17.5)"><text x="0" y="0" font-family="HanziPen SC, HanziPen Remote, Virgil, KaiTi, Segoe UI Emoji" font-size="28px" fill="#1e1e1e" text-anchor="start" style="white-space: pre;" direction="ltr" dominant-baseline="text-before-edge">变量b</text></g><g transform="translate(93.20011247907371 1142.799935477121) rotate(0 33.165992736816406 17.5)"><text x="0" y="0" font-family="HanziPen SC, HanziPen Remote, Virgil, KaiTi, Segoe UI Emoji" font-size="28px" fill="#1e1e1e" text-anchor="start" style="white-space: pre;" direction="ltr" dominant-baseline="text-before-edge">变量c</text></g><g stroke-linecap="round"><g transform="translate(140.05723789760054 744.5142386300223) rotate(0 -19.45098594176983 57.59278026143363)"><path d="M0.47 3.68 C-10.36 24.52, -16.88 52.95, -36.33 112.22 M1.3 0.08 C-14.03 42.26, -25.88 81.71, -40.2 115.1" stroke="#1e1e1e" stroke-width="1" fill="none"></path></g></g><mask></mask><g stroke-linecap="round" transform="translate(50.74266706194203 863.1427034650533) rotate(0 76.5 34)"><path d="M17 0 M17 0 C52.13 -3.03, 92.87 -1.84, 136 0 M17 0 C47.98 -1.35, 73.24 -2.27, 136 0 M136 0 C145.36 -2.32, 149.35 3.37, 153 17 M136 0 C151.73 -0.48, 157.46 9.93, 153 17 M153 17 C153.15 25.24, 153.43 29.72, 153 51 M153 17 C152.64 27.57, 154.17 35.31, 153 51 M153 51 C150.55 59.61, 148.85 65.75, 136 68 M153 51 C151.52 61.98, 145.59 67.43, 136 68 M136 68 C105.17 69.56, 76.76 72.31, 17 68 M136 68 C88.93 64.8, 44.43 66.62, 17 68 M17 68 C6.75 70.48, -0.09 65.67, 0 51 M17 68 C2.06 67.72, 1.79 62.13, 0 51 M0 51 C0.78 38.42, 0.91 28.07, 0 17 M0 51 C-0.91 39.53, 1.01 30.96, 0 17 M0 17 C-1.92 6.3, 2.11 -3.23, 17 0 M0 17 C-3.74 6.8, 9.41 -3.88, 17 0" stroke="#1e1e1e" stroke-width="2" fill="none"></path></g><g transform="translate(63.37467084612172 879.6427034650533) rotate(0 63.86799621582031 17.5)"><text x="63.86799621582031" y="0" font-family="HanziPen SC, HanziPen Remote, Virgil, KaiTi, Segoe UI Emoji" font-size="28px" fill="#1e1e1e" text-anchor="middle" style="white-space: pre;" direction="ltr" dominant-baseline="text-before-edge">管理从机1</text></g><g stroke-linecap="round"><g transform="translate(208.74272809709828 891.5727310310608) rotate(0 36.74963117446751 2.7249987757079452)"><path d="M-1.67 -1.56 C10.35 -0.13, 57.03 5.81, 69.62 7.01 M2.62 3.76 C15.8 4.62, 63.35 3.97, 75.17 3.49" stroke="#1e1e1e" stroke-width="1" fill="none"></path></g><g transform="translate(208.74272809709828 891.5727310310608) rotate(0 36.74963117446751 2.7249987757079452)"><path d="M44.99 12.16 C57.15 16.27, 61.09 6.38, 75.28 1.52 M49.14 14.21 C56.13 13.94, 59.04 7.47, 74.12 3.9" stroke="#1e1e1e" stroke-width="1" fill="none"></path></g><g transform="translate(208.74272809709828 891.5727310310608) rotate(0 36.74963117446751 2.7249987757079452)"><path d="M44.51 -8.36 C56.54 0.09, 60.58 -5.49, 75.28 1.52 M48.65 -6.31 C55.39 -1.6, 58.41 -3.11, 74.12 3.9" stroke="#1e1e1e" stroke-width="1" fill="none"></path></g></g><mask></mask><g stroke-linecap="round"><g transform="translate(440.74272809709805 895.9511423386098) rotate(0 31.350334967300284 1.66019323853277)"><path d="M-1.58 2.75 C9.41 3.65, 54.19 3.87, 64.28 3.84 M2.76 1.77 C13.77 1.98, 53.23 -1.08, 63.5 -0.43" stroke="#1e1e1e" stroke-width="1" fill="none"></path></g><g transform="translate(440.74272809709805 895.9511423386098) rotate(0 31.350334967300284 1.66019323853277)"><path d="M39.38 14.07 C44.29 4.22, 49.18 3.45, 61.18 -4.07 M37.4 12.09 C40.14 5.73, 47.81 5.53, 64.14 0.13" stroke="#1e1e1e" stroke-width="1" fill="none"></path></g><g transform="translate(440.74272809709805 895.9511423386098) rotate(0 31.350334967300284 1.66019323853277)"><path d="M39.08 -6.45 C43.83 -11.36, 48.8 -7.2, 61.18 -4.07 M37.1 -8.43 C40.31 -9.81, 48.06 -5.03, 64.14 0.13" stroke="#1e1e1e" stroke-width="1" fill="none"></path></g></g><mask></mask><g stroke-linecap="round"><g transform="translate(667.9428013392854 897.1427339826314) rotate(0 25.911117250323286 -0.8688841175287507)"><path d="M2.68 1.38 C10.64 0.4, 38.71 -2.08, 46.16 -3.12 M0.69 -0.34 C9.62 0.36, 43.77 0.93, 51.13 0.56" stroke="#1e1e1e" stroke-width="1" fill="none"></path></g><g transform="translate(667.9428013392854 897.1427339826314) rotate(0 25.911117250323286 -0.8688841175287507)"><path d="M30.2 5.35 C33.76 4.61, 36.9 0.86, 48.84 4.38 M26.31 7.13 C33.65 6.62, 41.98 4.29, 50.55 0.28" stroke="#1e1e1e" stroke-width="1" fill="none"></path></g><g transform="translate(667.9428013392854 897.1427339826314) rotate(0 25.911117250323286 -0.8688841175287507)"><path d="M30.06 -11.38 C33.98 -8.04, 37.16 -7.72, 48.84 4.38 M26.17 -9.59 C33.87 -5.26, 42.24 -2.75, 50.55 0.28" stroke="#1e1e1e" stroke-width="1" fill="none"></path></g></g><mask></mask><g transform="translate(727.9428013392854 889.1427339826314) rotate(0 28.671981811523438 17.5)"><text x="0" y="0" font-family="HanziPen SC, HanziPen Remote, Virgil, KaiTi, Segoe UI Emoji" font-size="28px" fill="#1e1e1e" text-anchor="start" style="white-space: pre;" direction="ltr" dominant-baseline="text-before-edge">NULL</text></g><g stroke-linecap="round"><g transform="translate(188.74271065848222 928.2284447806219) rotate(0 146.82520021081504 39.36508792221025)"><path d="M-1.38 -1.62 C47.39 11.3, 240.58 64.17, 290.02 77.59 M3.06 3.67 C52.91 16.92, 246.39 67.32, 295.03 80.35" stroke="#1e1e1e" stroke-width="1" fill="none"></path></g></g><mask></mask><g stroke-linecap="round" transform="translate(437.19993373325894 1010.1713289533336) rotate(0 178 154.80001831054688)"><path d="M32 0 M32 0 C103.46 6.83, 178.03 6.87, 324 0 M32 0 C145.86 4.62, 261.75 4.73, 324 0 M324 0 C344.17 -0.55, 352.76 13.18, 356 32 M324 0 C345.77 1.93, 359.96 8.01, 356 32 M356 32 C351.39 89.6, 352.99 148.08, 356 277.6 M356 32 C353.94 101.58, 353.83 172.15, 356 277.6 M356 277.6 C359.63 302.65, 346.46 307.4, 324 309.6 M356 277.6 C355.26 294.58, 349.75 309.43, 324 309.6 M324 309.6 C230.99 307.16, 132.82 310.66, 32 309.6 M324 309.6 C237.03 308.7, 151.11 308.75, 32 309.6 M32 309.6 C11.65 310.21, -1.22 298.28, 0 277.6 M32 309.6 C8.09 307.89, 1.84 302.15, 0 277.6 M0 277.6 C-3.3 213, 0.17 156.44, 0 32 M0 277.6 C-2.97 226.04, -2.37 171.23, 0 32 M0 32 C1.04 10.54, 12.83 -1, 32 0 M0 32 C0.53 13.46, 6.25 2.61, 32 0" stroke="#1e1e1e" stroke-width="1" fill="none"></path></g><g stroke-linecap="round"><g transform="translate(432.7428327287945 1064.5713577270506) rotate(0 180.90219195570796 0.2474791141470405)"><path d="M2.68 -0.29 C63.29 0.54, 302.28 3.67, 361.12 3.39 M0.69 -2.92 C61.4 -2.66, 300.29 -0.64, 360.35 -0.21" stroke="#1e1e1e" stroke-width="1" fill="none"></path></g></g><mask></mask><g stroke-linecap="round"><g transform="translate(432.28569684709817 1113.4855728149412) rotate(0 179.5051315182447 1.5077376552061423)"><path d="M2.72 2.59 C61.16 2.71, 294.68 0.23, 353.32 0.43 M0.75 1.53 C59.77 1.91, 299.73 1.61, 358.26 2.56" stroke="#1e1e1e" stroke-width="1" fill="none"></path></g></g><mask></mask><g stroke-linecap="round"><g transform="translate(437.99998256138394 1184.5712923322403) rotate(0 180.3304155048355 0.5018337178975116)"><path d="M-2.68 -2.77 C56.49 -2.57, 297.27 2.65, 357.74 3.77 M1.06 1.9 C60.91 2.39, 303.72 -1.86, 363.34 -0.93" stroke="#1e1e1e" stroke-width="1" fill="none"></path></g></g><mask></mask><g stroke-linecap="round"><g transform="translate(439.59995814732144 1225.3713411603653) rotate(0 177.72077382914722 3.9950628146900726)"><path d="M-1.46 0.57 C58.47 2.63, 297.46 8.27, 356.91 9.57 M2.94 -1.58 C62.82 -0.16, 296.83 2.83, 355.16 4.98" stroke="#1e1e1e" stroke-width="1" fill="none"></path></g></g><mask></mask><g stroke-linecap="round"><g transform="translate(438.7999703543527 1276.3428028651645) rotate(0 176.16849919047206 8.079922702908448)"><path d="M0.91 0.77 C60.21 3.01, 295.71 11.45, 354.39 14.01 M-2.05 -1.28 C56.95 1.36, 291.61 15.29, 351.7 17.44" stroke="#1e1e1e" stroke-width="1" fill="none"></path></g></g><mask></mask><g stroke-linecap="round" transform="translate(525.1999947684152 1294.171328953334) rotate(0 5.5999755859375 4.79998779296875)"><path d="M6.7 0.62 C7.17 1.3, 9.15 2.27, 9.61 3.23 C10.07 4.2, 9.42 5.6, 9.46 6.43 C9.5 7.27, 10.65 8.01, 9.88 8.25 C9.1 8.49, 6.35 8.17, 4.8 7.86 C3.24 7.56, 1.4 6.82, 0.57 6.41 C-0.25 6.01, 0.03 6.05, -0.15 5.46 C-0.33 4.87, -1.03 4.03, -0.48 2.86 C0.07 1.69, 1.35 -1.8, 3.16 -1.57 C4.98 -1.34, 9.24 2.53, 10.43 4.24 C11.63 5.94, 10.48 8.77, 10.34 8.65" stroke="none" stroke-width="0" fill="#1e1e1e"></path><path d="M-0.16 2.42 C0.6 1.16, 3.84 -0.96, 5.6 -1.33 C7.35 -1.71, 9.58 -0.73, 10.39 0.15 C11.19 1.03, 10.38 2.68, 10.43 3.95 C10.48 5.22, 11.15 6.89, 10.68 7.78 C10.21 8.68, 8.47 9.36, 7.61 9.32 C6.75 9.28, 6.42 8.1, 5.52 7.55 C4.63 7, 3.06 6.34, 2.24 6.01 C1.42 5.67, 0.55 6.18, 0.61 5.54 C0.68 4.91, 1.95 2.79, 2.62 2.22 C3.29 1.64, 4.68 2.48, 4.63 2.09" stroke="#1e1e1e" stroke-width="1.5" fill="none" stroke-dasharray="8 9"></path></g><g transform="translate(494.7999703543527 968.5712923322403) rotate(0 56 17.5)"><text x="0" y="0" font-family="HanziPen SC, HanziPen Remote, Virgil, KaiTi, Segoe UI Emoji" font-size="28px" fill="#1e1e1e" text-anchor="start" style="white-space: pre;" direction="ltr" dominant-baseline="text-before-edge">虚拟映射</text></g><g stroke-linecap="round" transform="translate(285.04271589006703 863.3427156720845) rotate(0 76.5 34)"><path d="M17 0 M17 0 C39.64 -0.11, 70.32 -4.67, 136 0 M17 0 C63.38 0.57, 109.79 0.14, 136 0 M136 0 C147.79 2.43, 149.16 7.93, 153 17 M136 0 C143.52 1.39, 155.36 7.03, 153 17 M153 17 C153.58 25.98, 153.97 42.65, 153 51 M153 17 C151.75 29, 152.32 41.13, 153 51 M153 51 C150.36 61.96, 150.68 66.4, 136 68 M153 51 C153.89 58.59, 145.97 64.96, 136 68 M136 68 C103.8 62.32, 63.21 64.65, 17 68 M136 68 C94.47 70.3, 55.25 70.71, 17 68 M17 68 C6.17 68.4, 0.52 58.99, 0 51 M17 68 C4.69 67.64, -3.38 58.45, 0 51 M0 51 C-2.67 38.93, -2.08 28.78, 0 17 M0 51 C-0.8 42.64, 0.65 32.8, 0 17 M0 17 C-2.79 8.28, 9.35 -3.36, 17 0 M0 17 C-1.61 9.45, 6.3 -2.63, 17 0" stroke="#1e1e1e" stroke-width="2" fill="none"></path></g><g transform="translate(297.6747196742467 879.8427156720845) rotate(0 63.86799621582031 17.5)"><text x="63.86799621582031" y="0" font-family="HanziPen SC, HanziPen Remote, Virgil, KaiTi, Segoe UI Emoji" font-size="28px" fill="#1e1e1e" text-anchor="middle" style="white-space: pre;" direction="ltr" dominant-baseline="text-before-edge">管理从机2</text></g><g stroke-linecap="round" transform="translate(506.84282575334794 864.3427156720846) rotate(0 76.5 33.99999999999994)"><path d="M17 0 M17 0 C61.54 0.35, 98.18 2.67, 136 0 M17 0 C52.55 1.81, 85.73 1.73, 136 0 M136 0 C144.02 1.21, 155.05 6.85, 153 17 M136 0 C149.89 4.59, 155.88 5.56, 153 17 M153 17 C155.3 28.34, 150.31 28.33, 153 51 M153 17 C151.23 26.81, 154.22 36.19, 153 51 M153 51 C153.78 59.08, 146.14 65.36, 136 68 M153 51 C152.65 64.29, 142.87 70.97, 136 68 M136 68 C112.01 66.81, 88.57 65.7, 17 68 M136 68 C100.69 68.65, 65.14 66.78, 17 68 M17 68 C4.81 67.69, -2.94 58.95, 0 51 M17 68 C9.31 68.22, 4.54 59.3, 0 51 M0 51 C-0.38 43.76, 3.06 28.85, 0 17 M0 51 C-1.83 40.04, 1.41 24.79, 0 17 M0 17 C-1.4 8.95, 6.22 -2.28, 17 0 M0 17 C-0.62 9.78, 7.92 -2.73, 17 0" stroke="#1e1e1e" stroke-width="2" fill="none"></path></g><g transform="translate(519.4748295375276 880.8427156720845) rotate(0 63.86799621582031 17.5)"><text x="63.86799621582031" y="0" font-family="HanziPen SC, HanziPen Remote, Virgil, KaiTi, Segoe UI Emoji" font-size="28px" fill="#1e1e1e" text-anchor="middle" style="white-space: pre;" direction="ltr" dominant-baseline="text-before-edge">管理从机3</text></g><g stroke-linecap="round" transform="translate(552.3999459402902 1295.7713045392716) rotate(0 5.5999755859375 4.79998779296875)"><path d="M5.79 0.2 C6.87 -0.22, 8.6 -1.18, 9.41 -0.58 C10.23 0.01, 10.74 2.75, 10.68 3.76 C10.61 4.76, 9.27 4.52, 9.01 5.46 C8.76 6.4, 9.71 8.96, 9.16 9.39 C8.61 9.81, 7.05 8.54, 5.72 8.01 C4.39 7.48, 1.84 6.95, 1.19 6.23 C0.55 5.5, 1.43 4.28, 1.86 3.66 C2.29 3.04, 2.79 2.85, 3.78 2.52 C4.77 2.19, 6.58 1.63, 7.81 1.67 C9.03 1.72, 11.39 2.71, 11.14 2.79" stroke="none" stroke-width="0" fill="#1e1e1e"></path><path d="M2.8 3.28 C3.3 2.11, 2.79 -1.26, 3.78 -1.87 C4.77 -2.49, 7.53 -1.12, 8.72 -0.43 C9.91 0.26, 10.62 0.77, 10.91 2.27 C11.2 3.76, 11.1 7.32, 10.47 8.53 C9.84 9.75, 8.46 9.5, 7.13 9.55 C5.8 9.6, 3.73 9.2, 2.48 8.83 C1.24 8.47, -0.06 8.44, -0.33 7.37 C-0.6 6.3, -0.2 3.91, 0.88 2.41 C1.95 0.91, 5.16 -1.26, 6.12 -1.64 C7.08 -2.02, 6.69 -0.16, 6.63 0.16" stroke="#1e1e1e" stroke-width="1.5" fill="none" stroke-dasharray="8 9"></path></g><g stroke-linecap="round" transform="translate(582.1999947684152 1297.3713411603653) rotate(0 5.5999755859375 4.79998779296875)"><path d="M6.92 -1.58 C7.94 -1.52, 9.05 0.82, 9.52 1.62 C9.99 2.41, 9.41 2.12, 9.73 3.19 C10.05 4.26, 11.63 7.2, 11.42 8.04 C11.21 8.88, 9.84 8.24, 8.46 8.22 C7.08 8.2, 4.2 8.26, 3.14 7.9 C2.07 7.53, 2.25 6.58, 2.09 6.01 C1.94 5.43, 2.1 5.14, 2.2 4.45 C2.3 3.75, 1.22 2.13, 2.7 1.82 C4.18 1.51, 9.92 1.92, 11.09 2.59 C12.25 3.26, 9.66 6.22, 9.69 5.83" stroke="none" stroke-width="0" fill="#1e1e1e"></path><path d="M6.24 -1.57 C7.12 -1.81, 9.59 0.16, 10.38 1.15 C11.17 2.15, 11.23 2.89, 10.99 4.39 C10.75 5.9, 9.98 9.27, 8.94 10.2 C7.89 11.14, 6.14 10.38, 4.7 9.99 C3.26 9.59, 1.29 8.59, 0.3 7.83 C-0.69 7.06, -1.48 6.64, -1.25 5.4 C-1.03 4.16, 0.6 1.52, 1.65 0.39 C2.7 -0.75, 4.04 -1.49, 5.07 -1.42 C6.09 -1.36, 6.74 0.11, 7.8 0.76 C8.85 1.41, 10.87 2.5, 11.4 2.5" stroke="#1e1e1e" stroke-width="1.5" fill="none" stroke-dasharray="8 9"></path></g><g stroke-linecap="round" transform="translate(613.4000069754464 1296.5712923322403) rotate(0 5.5999755859375 4.79998779296875)"><path d="M5.73 -0.13 C6.58 -0.1, 6.97 -1.02, 8.14 -0.24 C9.31 0.54, 12.11 3.45, 12.77 4.54 C13.43 5.62, 13.02 5.63, 12.12 6.28 C11.22 6.93, 8.59 8.01, 7.39 8.43 C6.2 8.84, 5.8 8.81, 4.96 8.76 C4.11 8.71, 3.15 8.81, 2.33 8.13 C1.51 7.46, -0.2 5.77, 0.03 4.72 C0.27 3.66, 2.41 2.15, 3.72 1.79 C5.04 1.42, 6.41 2.47, 7.92 2.52 C9.44 2.57, 12.75 1.98, 12.8 2.1" stroke="none" stroke-width="0" fill="#1e1e1e"></path><path d="M10.02 0.67 C10.96 1.52, 11.18 2.31, 11.08 3.83 C10.98 5.36, 10.38 8.8, 9.42 9.82 C8.47 10.84, 6.8 10.24, 5.37 9.96 C3.93 9.69, 1.9 8.84, 0.82 8.17 C-0.26 7.51, -1.2 7.16, -1.11 5.95 C-1.02 4.74, 0.42 2.08, 1.34 0.89 C2.27 -0.3, 3.78 -1, 4.45 -1.21 C5.12 -1.42, 4.13 -1.55, 5.36 -0.37 C6.59 0.8, 11.11 4.37, 11.83 5.82 C12.55 7.26, 9.91 8.17, 9.67 8.3" stroke="#1e1e1e" stroke-width="1.5" fill="none" stroke-dasharray="8 9"></path></g><g stroke-linecap="round" transform="translate(637.999982561384 1296.371280125209) rotate(0 5.5999755859375 4.79998779296875)"><path d="M-0.02 -0.11 C1.03 -0.83, 4.66 0.22, 6.42 0.14 C8.18 0.06, 9.73 -0.95, 10.55 -0.58 C11.37 -0.22, 11 1.17, 11.34 2.3 C11.68 3.44, 12.79 4.89, 12.57 6.24 C12.36 7.59, 11.44 9.66, 10.05 10.4 C8.66 11.15, 5.51 10.99, 4.25 10.71 C2.98 10.43, 3.4 9.5, 2.46 8.7 C1.52 7.9, -2.01 7.64, -1.39 5.93 C-0.77 4.22, 4.79 -0.91, 6.17 -1.55 C7.56 -2.2, 7.16 1.9, 6.92 2.07" stroke="none" stroke-width="0" fill="#1e1e1e"></path><path d="M0.96 0.67 C1.55 0.34, 3 1.78, 4.05 1.82 C5.09 1.85, 6.41 0.8, 7.25 0.87 C8.09 0.94, 8.68 1.4, 9.08 2.24 C9.49 3.09, 9.58 5.19, 9.67 5.96 C9.75 6.72, 10.15 6.51, 9.59 6.83 C9.03 7.16, 7.92 7.76, 6.32 7.89 C4.71 8.02, 0.88 8.13, -0.03 7.62 C-0.94 7.11, 0.17 6.1, 0.85 4.86 C1.54 3.62, 3.65 0.82, 4.08 0.19 C4.52 -0.44, 3.68 0.83, 3.48 1.07" stroke="#1e1e1e" stroke-width="1.5" fill="none" stroke-dasharray="8 9"></path></g><g stroke-linecap="round" transform="translate(664.999982561384 1296.5713533673966) rotate(0 5.5999755859375 4.79998779296875)"><path d="M6.75 0.11 C8.45 0.03, 10.05 -0.84, 10.83 -0.43 C11.61 -0.01, 11.17 1.42, 11.43 2.58 C11.7 3.73, 12.72 5.18, 12.44 6.5 C12.16 7.83, 11.17 9.84, 9.75 10.53 C8.33 11.22, 5.17 10.98, 3.92 10.64 C2.68 10.3, 3.14 9.3, 2.26 8.47 C1.38 7.64, -1.58 7.11, -1.37 5.64 C-1.16 4.18, 2.28 0.34, 3.52 -0.31 C4.76 -0.96, 5.24 1.78, 6.08 1.75 C6.91 1.72, 8.46 -0.57, 8.51 -0.47" stroke="none" stroke-width="0" fill="#1e1e1e"></path><path d="M1.98 2.68 C2.72 2.32, 4.05 0.73, 5.01 0.39 C5.97 0.05, 6.93 0.05, 7.73 0.65 C8.53 1.25, 9.25 3.2, 9.83 3.99 C10.4 4.78, 11.4 4.8, 11.19 5.41 C10.99 6.03, 10.16 7.13, 8.61 7.68 C7.05 8.23, 3.06 8.88, 1.88 8.72 C0.69 8.57, 1.45 7.72, 1.49 6.76 C1.52 5.79, 1.72 3.92, 2.08 2.95 C2.44 1.97, 3.04 1.34, 3.65 0.91 C4.27 0.48, 5.69 0.34, 5.76 0.35" stroke="#1e1e1e" stroke-width="1.5" fill="none" stroke-dasharray="8 9"></path></g><g stroke-linecap="round" transform="translate(40.17131696428555 1012.6570510864249) rotate(0 106.4000244140625 171.1999969482422)"><path d="M-0.19 -2.32 C43.41 5.41, 86.08 3.15, 209.94 -1.04 M-1.7 1.13 C48.31 -3.01, 99.13 -0.86, 212.55 1.72 M213.3 0.34 C213.01 88.66, 210.53 176.05, 212.59 340.45 M214.11 -0.87 C216.67 73.12, 217.58 147.36, 214.01 343.3 M214.48 339.95 C153.12 348.03, 85.89 343.56, 2.89 342.89 M213.66 341.36 C161.44 346.77, 107.66 345.11, -1.42 343.31 M-1.99 344.52 C-2.67 218.67, 0.28 97.52, 1.62 -0.31 M1.13 341.84 C-1.3 207, -2.4 74.46, -0.52 -0.07" stroke="#1e1e1e" stroke-width="1" fill="none"></path></g><g transform="translate(103.59990583147282 968.1998672485347) rotate(0 56 17.5)"><text x="0" y="0" font-family="HanziPen SC, HanziPen Remote, Virgil, KaiTi, Segoe UI Emoji" font-size="28px" fill="#1e1e1e" text-anchor="start" style="white-space: pre;" direction="ltr" dominant-baseline="text-before-edge">实际地址</text></g><g stroke-linecap="round"><g transform="translate(273.6570347377233 1301.4012291653003) rotate(0 72.91098200263684 -26.03071419973753)"><path d="M-1.6 0.78 C30.93 -15.1, 65.63 -25.68, 147.42 -52.9 M-0.52 0.84 C53.65 -13.56, 106.2 -33.41, 146.33 -48.64" stroke="#1e1e1e" stroke-width="1" fill="none"></path></g><g transform="translate(273.6570347377233 1301.4012291653003) rotate(0 72.91098200263684 -26.03071419973753)"><path d="M121.94 -28.36 C125.65 -35.27, 131.6 -38.95, 148.04 -52.52 M123.01 -28.3 C131.89 -33.92, 139.64 -43.01, 146.95 -48.26" stroke="#1e1e1e" stroke-width="1" fill="none"></path></g><g transform="translate(273.6570347377233 1301.4012291653003) rotate(0 72.91098200263684 -26.03071419973753)"><path d="M114.74 -47.58 C120.1 -50.11, 127.73 -49.3, 148.04 -52.52 M115.81 -47.52 C126.99 -46.02, 137.36 -48.1, 146.95 -48.26" stroke="#1e1e1e" stroke-width="1" fill="none"></path></g></g><mask></mask><g stroke-linecap="round"><g transform="translate(274.6855468750001 1149.6314949227635) rotate(0 72.950534877633 30.255651962890283)"><path d="M-3.23 -1.04 C32.41 14.29, 64.6 25.55, 147.5 62.18 M0.26 -1.67 C46.8 18.99, 92.83 36.9, 149.13 61.04" stroke="#1e1e1e" stroke-width="1" fill="none"></path></g><g transform="translate(274.6855468750001 1149.6314949227635) rotate(0 72.950534877633 30.255651962890283)"><path d="M115.94 58.52 C126.94 59.79, 135.26 58.98, 149.08 62.28 M119.43 57.89 C128.3 59.82, 136.82 58.76, 150.71 61.14" stroke="#1e1e1e" stroke-width="1" fill="none"></path></g><g transform="translate(274.6855468750001 1149.6314949227635) rotate(0 72.950534877633 30.255651962890283)"><path d="M123.9 39.6 C133.53 44.58, 140.23 47.61, 149.08 62.28 M127.39 38.98 C133.77 46.95, 139.75 51.93, 150.71 61.14" stroke="#1e1e1e" stroke-width="1" fill="none"></path></g></g><mask></mask><g stroke-linecap="round"><g transform="translate(273.42854527064753 1215.7923479957308) rotate(0 76.91009126137914 -27.713557690451353)"><path d="M-3.34 -0.85 C48.32 -20.86, 93.99 -32.27, 156.08 -52.07 M1.78 -0.37 C38.08 -10.15, 72.55 -23.4, 157.16 -55.06" stroke="#1e1e1e" stroke-width="1" fill="none"></path></g><g transform="translate(273.42854527064753 1215.7923479957308) rotate(0 76.91009126137914 -27.713557690451353)"><path d="M131.01 -36.43 C141.13 -44.67, 145.2 -44.65, 157.35 -51.12 M136.13 -35.95 C141.44 -38.55, 144.77 -43.25, 158.44 -54.11" stroke="#1e1e1e" stroke-width="1" fill="none"></path></g><g transform="translate(273.42854527064753 1215.7923479957308) rotate(0 76.91009126137914 -27.713557690451353)"><path d="M123.82 -55.66 C136.23 -57.9, 142.54 -51.87, 157.35 -51.12 M128.95 -55.17 C136.01 -53.2, 141.03 -53.4, 158.44 -54.11" stroke="#1e1e1e" stroke-width="1" fill="none"></path></g></g><mask></mask><g stroke-linecap="round"><g transform="translate(268.62844412667425 1056.639154806824) rotate(0 75.04923180863233 28.71429389903517)"><path d="M-2.05 3.57 C58.2 25.59, 121.33 44.12, 152.15 59.11 M1.84 -1.68 C50.57 19.35, 103.6 36.23, 149.44 58.34" stroke="#1e1e1e" stroke-width="1" fill="none"></path></g><g transform="translate(268.62844412667425 1056.639154806824) rotate(0 75.04923180863233 28.71429389903517)"><path d="M117.46 60.03 C130.68 60.75, 146.07 57.49, 151.88 60.9 M121.35 54.78 C129.19 58.36, 140.57 56.24, 149.18 60.14" stroke="#1e1e1e" stroke-width="1" fill="none"></path></g><g transform="translate(268.62844412667425 1056.639154806824) rotate(0 75.04923180863233 28.71429389903517)"><path d="M125.68 41.22 C135.38 49.47, 147.48 53.71, 151.88 60.9 M129.57 35.97 C134.29 46.21, 142.82 50.62, 149.18 60.14" stroke="#1e1e1e" stroke-width="1" fill="none"></path></g></g><mask></mask><g stroke-linecap="round"><g transform="translate(274.9141235351565 1092.8647263749626) rotate(0 72.96603669518834 -19.311498122638113)"><path d="M2.62 3.69 C48.8 -14.58, 108.01 -27.83, 142.17 -42.31 M0.38 1.17 C53.87 -15.28, 110.51 -29.79, 145.55 -41.6" stroke="#1e1e1e" stroke-width="1" fill="none"></path></g><g transform="translate(274.9141235351565 1092.8647263749626) rotate(0 72.96603669518834 -19.311498122638113)"><path d="M124.26 -19.79 C126.81 -31.14, 142.16 -35.78, 143.27 -42.14 M122.03 -22.31 C128.8 -30.98, 138.48 -36.28, 146.65 -41.43" stroke="#1e1e1e" stroke-width="1" fill="none"></path></g><g transform="translate(274.9141235351565 1092.8647263749626) rotate(0 72.96603669518834 -19.311498122638113)"><path d="M118.21 -39.4 C123.15 -43.53, 140.69 -41.04, 143.27 -42.14 M115.97 -41.92 C125.29 -42.88, 137.33 -40.54, 146.65 -41.43" stroke="#1e1e1e" stroke-width="1" fill="none"></path></g></g><mask></mask><g transform="translate(106.89124516078414 1190.7285330636169) rotate(0 34.00599670410156 17.5)"><text x="0" y="0" font-family="HanziPen SC, HanziPen Remote, Virgil, KaiTi, Segoe UI Emoji" font-size="28px" fill="#1e1e1e" text-anchor="start" style="white-space: pre;" direction="ltr" dominant-baseline="text-before-edge">变量d</text></g><g transform="translate(97.76554434640082 1280.1570696149556) rotate(0 34.159996032714844 17.5)"><text x="0" y="0" font-family="HanziPen SC, HanziPen Remote, Virgil, KaiTi, Segoe UI Emoji" font-size="28px" fill="#1e1e1e" text-anchor="start" style="white-space: pre;" direction="ltr" dominant-baseline="text-before-edge">变量e</text></g><g stroke-linecap="round" transform="translate(60.21369062151268 680.4856959751676) rotate(0 76.5 34)"><path d="M17 0 M17 0 C63.13 -1.05, 104.86 3.61, 136 0 M17 0 C51.73 -0.02, 86.92 2.03, 136 0 M136 0 C149.51 -1.03, 153.92 1.67, 153 17 M136 0 C144.57 0.28, 156.51 1.4, 153 17 M153 17 C154.65 23.66, 153.32 37.97, 153 51 M153 17 C152.21 26.62, 152.43 37.16, 153 51 M153 51 C149.22 65.7, 146.08 65.59, 136 68 M153 51 C148.51 59.68, 146.49 65.76, 136 68 M136 68 C98.58 68.64, 58.65 63.44, 17 68 M136 68 C102.77 71.49, 67.39 69.88, 17 68 M17 68 C3.06 71.05, -2.47 58.74, 0 51 M17 68 C4.44 63.48, 3.61 59.84, 0 51 M0 51 C2.1 42.28, 2.05 26.82, 0 17 M0 51 C0.94 39.25, -0.39 23.76, 0 17 M0 17 C3.02 4.03, 3.96 3.53, 17 0 M0 17 C-3.51 6.91, 7.31 -0.19, 17 0" stroke="#1e1e1e" stroke-width="2" fill="none"></path></g><g transform="translate(72.84569440569237 696.9856959751676) rotate(0 63.86799621582031 17.5)"><text x="63.86799621582031" y="0" font-family="HanziPen SC, HanziPen Remote, Virgil, KaiTi, Segoe UI Emoji" font-size="28px" fill="#1e1e1e" text-anchor="middle" style="white-space: pre;" direction="ltr" dominant-baseline="text-before-edge">主机对象1</text></g><g stroke-linecap="round"><g transform="translate(218.21375165666893 708.9157235411751) rotate(0 37.280449678301835 2.1848942678295202)"><path d="M2.74 0.06 C14.28 0.83, 57.59 2.97, 68.72 3.52 M0.78 -2.38 C13.21 -1.1, 61.34 5.36, 73.78 6.75" stroke="#1e1e1e" stroke-width="1" fill="none"></path></g><g transform="translate(218.21375165666893 708.9157235411751) rotate(0 37.280449678301835 2.1848942678295202)"><path d="M44.62 9.92 C51.76 8.6, 59.76 5.2, 76.57 8.93 M43.34 13.59 C54.05 10.35, 60.1 12.16, 75.72 7.27" stroke="#1e1e1e" stroke-width="1" fill="none"></path></g><g transform="translate(218.21375165666893 708.9157235411751) rotate(0 37.280449678301835 2.1848942678295202)"><path d="M47.14 -10.44 C53.42 -5.99, 60.7 -3.65, 76.57 8.93 M45.86 -6.78 C55.98 -4.48, 61.33 2.91, 75.72 7.27" stroke="#1e1e1e" stroke-width="1" fill="none"></path></g></g><mask></mask><g stroke-linecap="round"><g transform="translate(450.2137516566687 713.2941348487241) rotate(0 31.462048463486155 0.5373955766253857)"><path d="M-2.48 -0.74 C7.05 -0.49, 49.69 0.69, 59.92 1.55 M1.37 -3.61 C11.57 -2.97, 54.93 4.09, 65.4 4.69" stroke="#1e1e1e" stroke-width="1" fill="none"></path></g><g transform="translate(450.2137516566687 713.2941348487241) rotate(0 31.462048463486155 0.5373955766253857)"><path d="M35.15 9.2 C46.53 5.46, 62.23 8.79, 64.37 5.61 M37.73 9.75 C41.68 11.97, 49.91 9.32, 64.02 4.54" stroke="#1e1e1e" stroke-width="1" fill="none"></path></g><g transform="translate(450.2137516566687 713.2941348487241) rotate(0 31.462048463486155 0.5373955766253857)"><path d="M37.53 -11.19 C47.97 -6.86, 62.72 4.59, 64.37 5.61 M40.12 -10.63 C43.34 -4.33, 51.1 -2.9, 64.02 4.54" stroke="#1e1e1e" stroke-width="1" fill="none"></path></g></g><mask></mask><g transform="translate(554.5565948486327 713.3428519112724) rotate(0 28.671981811523438 17.5)"><text x="0" y="0" font-family="HanziPen SC, HanziPen Remote, Virgil, KaiTi, Segoe UI Emoji" font-size="28px" fill="#1e1e1e" text-anchor="start" style="white-space: pre;" direction="ltr" dominant-baseline="text-before-edge">NULL</text></g><g stroke-linecap="round" transform="translate(294.5137394496377 680.6857081821988) rotate(0 76.5 34)"><path d="M17 0 M17 0 C40.03 -0.37, 61.12 -3.7, 136 0 M17 0 C52.98 4, 91.8 2.73, 136 0 M136 0 C144.57 -0.29, 155.11 5.01, 153 17 M136 0 C149.5 -3.38, 150.44 5.63, 153 17 M153 17 C156.67 24.44, 150.89 30.47, 153 51 M153 17 C153.56 26.63, 152.33 34.64, 153 51 M153 51 C154.29 64.47, 143.42 67.26, 136 68 M153 51 C151.25 65.76, 147.98 71.94, 136 68 M136 68 C112.82 63.98, 79.94 65.38, 17 68 M136 68 C112.44 67.75, 86.74 67.93, 17 68 M17 68 C7.9 70.41, -2.28 66.24, 0 51 M17 68 C7.14 68.02, 2.65 66.4, 0 51 M0 51 C-1.57 39.38, 3.59 28.13, 0 17 M0 51 C-0.99 37.93, -1.93 27.9, 0 17 M0 17 C3.38 5.16, 4.43 2.25, 17 0 M0 17 C0.71 4.56, 3.37 -3.56, 17 0" stroke="#1e1e1e" stroke-width="2" fill="none"></path></g><g transform="translate(307.14574323381737 697.1857081821988) rotate(0 63.86799621582031 17.5)"><text x="63.86799621582031" y="0" font-family="HanziPen SC, HanziPen Remote, Virgil, KaiTi, Segoe UI Emoji" font-size="28px" fill="#1e1e1e" text-anchor="middle" style="white-space: pre;" direction="ltr" dominant-baseline="text-before-edge">主机对象2</text></g><g transform="translate(457.6123517136135 1065.6095981118974) rotate(0 74.85543823242188 28.737930938591944)"><text x="0" y="0" font-family="HanziPen SC, HanziPen Remote, Virgil, KaiTi, Segoe UI Emoji" font-size="45.98068950174715px" fill="#1e1e1e" text-anchor="start" style="white-space: pre;" direction="ltr" dominant-baseline="text-before-edge">0x0001</text></g><g transform="translate(461.17686680385043 1120.800195005337) rotate(0 74.85543823242188 28.737930938591944)"><text x="0" y="0" font-family="HanziPen SC, HanziPen Remote, Virgil, KaiTi, Segoe UI Emoji" font-size="45.98068950174715px" fill="#1e1e1e" text-anchor="start" style="white-space: pre;" direction="ltr" dominant-baseline="text-before-edge">0x0002</text></g><g transform="translate(460.5968388148716 1179.6573553010958) rotate(0 74.85543823242188 28.737930938591944)"><text x="0" y="0" font-family="HanziPen SC, HanziPen Remote, Virgil, KaiTi, Segoe UI Emoji" font-size="45.98068950174715px" fill="#1e1e1e" text-anchor="start" style="white-space: pre;" direction="ltr" dominant-baseline="text-before-edge">0x0003</text></g><g transform="translate(462.02549743652355 1223.6573378624796) rotate(0 74.85543823242188 28.737930938591944)"><text x="0" y="0" font-family="HanziPen SC, HanziPen Remote, Virgil, KaiTi, Segoe UI Emoji" font-size="45.98068950174715px" fill="#1e1e1e" text-anchor="start" style="white-space: pre;" direction="ltr" dominant-baseline="text-before-edge">0x0004</text></g><g transform="translate(455.89122227260043 1008.3000313895086) rotate(0 77.94862365722656 29.928545270647305)"><text x="0" y="0" font-family="HanziPen SC, HanziPen Remote, Virgil, KaiTi, Segoe UI Emoji" font-size="47.885672433035694px" fill="#1e1e1e" text-anchor="start" style="white-space: pre;" direction="ltr" dominant-baseline="text-before-edge">0x0000</text></g></svg>