<svg version="1.1" xmlns="http://www.w3.org/2000/svg" viewBox="0 0 1099.9999128069194 1510.2857535226003" width="2199.9998256138388" height="3020.5715070452006">
  <!-- svg-source:excalidraw -->
  
  <defs>
    <style class="style-fonts">
      @font-face {
        font-family: "Virgil";
        src: url("https://unpkg.com/revedraw@1.0.0-alpha.10/dist/excalidraw-assets/Virgil.woff2");
      }
      @font-face {
        font-family: "Cascadia";
        src: url("https://unpkg.com/revedraw@1.0.0-alpha.10/dist/excalidraw-assets/Cascadia.woff2");
      }
    </style>
    
  </defs>
  <rect x="0" y="0" width="1099.9999128069194" height="1510.2857535226003" fill="#ffffff"></rect><g stroke-linecap="round" transform="translate(351.71567248125336 1021.0024324046491) rotate(0 75.5 34.5)"><path d="M17.25 0 M17.25 0 C60.03 -0.77, 101.08 4.32, 133.75 0 M17.25 0 C50.57 2.28, 88.11 1.91, 133.75 0 M133.75 0 C148.99 -2.56, 152.9 3.64, 151 17.25 M133.75 0 C147.66 -2.5, 146.96 2.37, 151 17.25 M151 17.25 C148.04 26.22, 152.57 41.26, 151 51.75 M151 17.25 C150.53 28.99, 148.86 44.45, 151 51.75 M151 51.75 C152.35 59.32, 142.97 65.09, 133.75 69 M151 51.75 C151.73 64.5, 140.68 70.8, 133.75 69 M133.75 69 C92.36 70.07, 47.76 72.52, 17.25 69 M133.75 69 C97.43 67.15, 61.07 68.54, 17.25 69 M17.25 69 C4.79 70.87, 0.16 59.5, 0 51.75 M17.25 69 C6.82 71.27, 2.37 67.05, 0 51.75 M0 51.75 C-0.95 41.14, 1.19 27.21, 0 17.25 M0 51.75 C1.69 37.1, 0.86 23.6, 0 17.25 M0 17.25 C2.45 4.04, 2.15 -3.22, 17.25 0 M0 17.25 C3.09 4.5, 7.84 1.89, 17.25 0" stroke="#1e1e1e" stroke-width="2" fill="none"></path></g><g transform="translate(357.1956834675815 1026.3266121132058) rotate(0 70.01998901367188 29.1758202914433)"><text x="70.01998901367188" y="0" font-family="HanziPen SC, HanziPen Remote, Virgil, KaiTi, Segoe UI Emoji" font-size="46.68131246630931px" fill="#1e1e1e" text-anchor="middle" style="white-space: pre;" direction="ltr" dominant-baseline="text-before-edge">空闲态</text></g><g stroke-linecap="round" transform="translate(206.14069079180024 1277.0106091790171) rotate(0 75.5 34.5)"><path d="M17.25 0 M17.25 0 C43.1 -0.65, 70.08 -4.05, 133.75 0 M17.25 0 C54.36 1.3, 90.89 -1.82, 133.75 0 M133.75 0 C143.94 1.64, 153.15 3.77, 151 17.25 M133.75 0 C142.53 -3.03, 150.59 8.76, 151 17.25 M151 17.25 C149.19 27.9, 148.54 34.55, 151 51.75 M151 17.25 C150.18 28.69, 150.3 44.49, 151 51.75 M151 51.75 C151.72 64.12, 147.42 68.52, 133.75 69 M151 51.75 C152.09 61.33, 141.01 68.96, 133.75 69 M133.75 69 C94.46 68.45, 59.71 64.76, 17.25 69 M133.75 69 C95.76 71.58, 57.05 71.43, 17.25 69 M17.25 69 C4.22 71.45, -1.95 65.32, 0 51.75 M17.25 69 C7.87 72.37, -1.28 66.07, 0 51.75 M0 51.75 C-0.71 41.85, -2.26 31.18, 0 17.25 M0 51.75 C1.21 37.92, 0.29 25.59, 0 17.25 M0 17.25 C2.1 3.58, 2.24 -2.94, 17.25 0 M0 17.25 C2.95 9.84, 1.31 -4.11, 17.25 0" stroke="#1e1e1e" stroke-width="2" fill="none"></path></g><g transform="translate(211.62070177812836 1282.334788887574) rotate(0 70.01998901367188 29.1758202914433)"><text x="70.01998901367188" y="0" font-family="HanziPen SC, HanziPen Remote, Virgil, KaiTi, Segoe UI Emoji" font-size="46.68131246630931px" fill="#1e1e1e" text-anchor="middle" style="white-space: pre;" direction="ltr" dominant-baseline="text-before-edge">发送态</text></g><g stroke-linecap="round"><g transform="translate(353.23479080310506 1104.0515742226255) rotate(0 -38.06047914953223 77.37441797062752)"><path d="M-2.73 -0.08 C-15.23 25.77, -65.25 128.37, -77.11 154.8 M0.99 -2.59 C-10.44 23.59, -59.15 131.27, -71.82 157.34" stroke="#1e1e1e" stroke-width="2" fill="none"></path></g><g transform="translate(353.23479080310506 1104.0515742226255) rotate(0 -38.06047914953223 77.37441797062752)"><path d="M-69.32 124.52 C-72.72 135.81, -68.08 137.71, -71.9 155.05 M-67.45 127.17 C-70.43 138.73, -70 146.96, -69.86 158.4" stroke="#1e1e1e" stroke-width="2" fill="none"></path></g><g transform="translate(353.23479080310506 1104.0515742226255) rotate(0 -38.06047914953223 77.37441797062752)"><path d="M-50.72 133.19 C-58.29 142.16, -57.84 142.12, -71.9 155.05 M-48.85 135.84 C-57.76 144.52, -63.15 150.04, -69.86 158.4" stroke="#1e1e1e" stroke-width="2" fill="none"></path></g></g><mask></mask><g stroke-opacity="0.4" fill-opacity="0.4" stroke-linecap="round" transform="translate(144.8239019484747 1123.2515864296568) rotate(0 83.19998168945312 23.199996948242188)"><path d="M11.6 0 M11.6 0 C42.19 3.06, 75.68 2.53, 154.8 0 M154.8 0 C165.15 1.34, 163.86 7.21, 166.4 11.6 M166.4 11.6 C163.82 22.36, 165.56 25.58, 166.4 34.8 M166.4 34.8 C166.8 44.21, 160.14 45.94, 154.8 46.4 M154.8 46.4 C110.81 49.47, 62 52.08, 11.6 46.4 M11.6 46.4 C6.88 46.72, 1.63 44.93, 0 34.8 M0 34.8 C-1.67 28.58, 3.88 15.28, 0 11.6 M0 11.6 C-0.16 6.94, 6.44 1.29, 11.6 0" stroke="#1e1e1e" stroke-width="2.5" fill="none" stroke-dasharray="1.5 8"></path></g><g stroke-opacity="0.4" fill-opacity="0.4" transform="translate(158.02388363792784 1133.951583377899) rotate(0 70 12.5)"><text x="70" y="0" font-family="HanziPen SC, HanziPen Remote, Virgil, KaiTi, Segoe UI Emoji" font-size="20px" fill="#1e1e1e" text-anchor="middle" style="white-space: pre;" direction="ltr" dominant-baseline="text-before-edge">请求队列不为空</text></g><g stroke-linecap="round" transform="translate(570.6205797078159 1274.9347339559333) rotate(0 75.5 34.5)"><path d="M17.25 0 M17.25 0 C41.49 0.67, 68.96 -4.28, 133.75 0 M17.25 0 C52.17 1.25, 83.23 1.14, 133.75 0 M133.75 0 C141.47 2.39, 149.79 9.37, 151 17.25 M133.75 0 C146.22 -1.72, 151.95 7.52, 151 17.25 M151 17.25 C150.37 25.69, 149.38 31.2, 151 51.75 M151 17.25 C151.71 28.81, 150.3 42.75, 151 51.75 M151 51.75 C153.54 59.43, 145.47 67.62, 133.75 69 M151 51.75 C152.51 62.97, 145.32 72.22, 133.75 69 M133.75 69 C105.63 68.59, 81.88 66.23, 17.25 69 M133.75 69 C100.39 67.11, 65.96 65.87, 17.25 69 M17.25 69 C7.57 66.08, 0.96 63.96, 0 51.75 M17.25 69 C8.1 72.42, 0.13 61.89, 0 51.75 M0 51.75 C-1.85 34.89, 0.87 27.55, 0 17.25 M0 51.75 C-1.42 40.92, 0.75 29.73, 0 17.25 M0 17.25 C-0.36 9.4, 3.87 -2.61, 17.25 0 M0 17.25 C-1.51 7.63, 8.22 -2.27, 17.25 0" stroke="#1e1e1e" stroke-width="2" fill="none"></path></g><g transform="translate(576.100590694144 1280.2589136644901) rotate(0 70.01998901367188 29.1758202914433)"><text x="70.01998901367188" y="0" font-family="HanziPen SC, HanziPen Remote, Virgil, KaiTi, Segoe UI Emoji" font-size="46.68131246630931px" fill="#1e1e1e" text-anchor="middle" style="white-space: pre;" direction="ltr" dominant-baseline="text-before-edge">等待态</text></g><g stroke-linecap="round"><g transform="translate(366.42381649925596 1315.2515559120786) rotate(0 96.23788739986713 1.2109576587379252)"><path d="M0.89 0.69 C33.2 1.17, 162.64 0.64, 194.55 0.69 M-2.08 -1.4 C29.96 -0.33, 161.19 2.96, 193.27 3.82" stroke="#1e1e1e" stroke-width="2" fill="none"></path></g><g transform="translate(366.42381649925596 1315.2515559120786) rotate(0 96.23788739986713 1.2109576587379252)"><path d="M165.81 15.85 C172.9 9.49, 182.56 4.85, 191.97 5.72 M166.59 13.22 C176.39 10.47, 185.83 7.47, 192.99 5.58" stroke="#1e1e1e" stroke-width="2" fill="none"></path></g><g transform="translate(366.42381649925596 1315.2515559120786) rotate(0 96.23788739986713 1.2109576587379252)"><path d="M166.34 -4.66 C172.94 -4.36, 182.43 -2.34, 191.97 5.72 M167.12 -7.29 C176.8 -2.75, 186.05 1.53, 192.99 5.58" stroke="#1e1e1e" stroke-width="2" fill="none"></path></g></g><mask></mask><g stroke-opacity="0.4" fill-opacity="0.4" stroke-linecap="round" transform="translate(392.44884091331846 1261.651565067352) rotate(0 63 23.5)"><path d="M11.75 0 M11.75 0 C41.11 -5.25, 65.23 -1.46, 114.25 0 M114.25 0 C120.88 0.91, 129.03 4.34, 126 11.75 M126 11.75 C123.07 19.9, 123.63 26.84, 126 35.25 M126 35.25 C123.89 41.31, 118.56 48.72, 114.25 47 M114.25 47 C86.69 48.25, 54.62 48.63, 11.75 47 M11.75 47 C7.19 46.73, -2.39 44.47, 0 35.25 M0 35.25 C-1.93 27.03, 2.47 23.63, 0 11.75 M0 11.75 C0.7 6.88, 5.4 1.26, 11.75 0" stroke="#1e1e1e" stroke-width="2.5" fill="none" stroke-dasharray="1.5 8"></path></g><g stroke-opacity="0.4" fill-opacity="0.4" transform="translate(415.44884091331846 1272.651565067352) rotate(0 40 12.5)"><text x="40" y="0" font-family="HanziPen SC, HanziPen Remote, Virgil, KaiTi, Segoe UI Emoji" font-size="20px" fill="#1e1e1e" text-anchor="middle" style="white-space: pre;" direction="ltr" dominant-baseline="text-before-edge">发送成功</text></g><g stroke-linecap="round"><g transform="translate(193.16509053027175 1343.9069664012613) rotate(0 -55.01862491168799 -29.412362467685824)"><path d="M-1.58 2.24 C-21.31 1.22, -118.5 2.53, -116.65 -8.01 C-114.79 -18.56, -11.14 -52.51, 9.53 -61.06 M2.76 0.98 C-17.61 -0.78, -120.62 -2.78, -119.56 -12.77 C-118.49 -22.76, -12.13 -51.64, 9.17 -58.98" stroke="#1e1e1e" stroke-width="2" fill="none"></path></g><g transform="translate(193.16509053027175 1343.9069664012613) rotate(0 -55.01862491168799 -29.412362467685824)"><path d="M-11.59 -42.68 C-5.18 -43.38, 0.14 -53.04, 8.99 -60.5 M-16.03 -40.65 C-5.38 -47.67, -0.21 -52.78, 8.48 -59.94" stroke="#1e1e1e" stroke-width="2" fill="none"></path></g><g transform="translate(193.16509053027175 1343.9069664012613) rotate(0 -55.01862491168799 -29.412362467685824)"><path d="M-17.6 -62.31 C-9.27 -55.82, -1.78 -58.36, 8.99 -60.5 M-22.03 -60.27 C-9.12 -60.83, -1.98 -59.5, 8.48 -59.94" stroke="#1e1e1e" stroke-width="2" fill="none"></path></g></g><mask></mask><g stroke-opacity="0.4" fill-opacity="0.4" stroke-linecap="round" transform="translate(62.42381649925596 1354.9515376015318) rotate(0 63 23.5)"><path d="M11.75 0 M11.75 0 C54.61 -1.8, 90.84 -3.97, 114.25 0 M114.25 0 C119.93 -2.54, 126.94 2.68, 126 11.75 M126 11.75 C129.4 22.21, 122.57 27.07, 126 35.25 M126 35.25 C127.48 45.23, 125.57 47.42, 114.25 47 M114.25 47 C77.08 45.41, 32.47 43.52, 11.75 47 M11.75 47 C4.49 46.08, 3.74 46.05, 0 35.25 M0 35.25 C2.79 31.08, 3.38 25.41, 0 11.75 M0 11.75 C-3.54 1.22, 4.29 -1.08, 11.75 0" stroke="#1e1e1e" stroke-width="2.5" fill="none" stroke-dasharray="1.5 8"></path></g><g stroke-opacity="0.4" fill-opacity="0.4" transform="translate(85.42381649925596 1365.9515376015318) rotate(0 40 12.5)"><text x="40" y="0" font-family="HanziPen SC, HanziPen Remote, Virgil, KaiTi, Segoe UI Emoji" font-size="20px" fill="#1e1e1e" text-anchor="middle" style="white-space: pre;" direction="ltr" dominant-baseline="text-before-edge">发送失败</text></g><g stroke-linecap="round"><g transform="translate(614.0958928993814 1262.4515681191099) rotate(0 -52.637922446775406 -80.8027082913361)"><path d="M0.3 1.03 C-17.41 -25.01, -86.55 -132.33, -104.16 -158.95 M-2.98 -0.87 C-21.11 -27.41, -88.24 -135.66, -105.58 -162.64" stroke="#1e1e1e" stroke-width="2" fill="none"></path></g><g transform="translate(614.0958928993814 1262.4515681191099) rotate(0 -52.637922446775406 -80.8027082913361)"><path d="M-80.38 -142.12 C-86.92 -150.69, -95.46 -157.13, -105.16 -159.19 M-81.58 -144.73 C-85.99 -147.9, -95.75 -154.27, -105.1 -161.27" stroke="#1e1e1e" stroke-width="2" fill="none"></path></g><g transform="translate(614.0958928993814 1262.4515681191099) rotate(0 -52.637922446775406 -80.8027082913361)"><path d="M-97.74 -131.17 C-97.56 -143.89, -99.57 -154.44, -105.16 -159.19 M-98.93 -133.78 C-98.89 -139.43, -104.23 -148.58, -105.1 -161.27" stroke="#1e1e1e" stroke-width="2" fill="none"></path></g></g><mask></mask><g stroke-opacity="0.4" fill-opacity="0.4" stroke-linecap="round" transform="translate(573.848865327381 1146.451583377899) rotate(0 65 21.5)"><path d="M10.75 0 M10.75 0 C49.68 0.48, 91.8 -5.36, 119.25 0 M119.25 0 C123.84 1.01, 132.76 1.27, 130 10.75 M130 10.75 C128.13 18.58, 128.6 28.8, 130 32.25 M130 32.25 C128.65 43.04, 126.24 39.35, 119.25 43 M119.25 43 C77.5 44.74, 34.37 39.1, 10.75 43 M10.75 43 C1.91 40.34, 0.05 42.13, 0 32.25 M0 32.25 C-0.26 27.76, -3.47 24.83, 0 10.75 M0 10.75 C-1.17 5.03, 2.56 -1.74, 10.75 0" stroke="#1e1e1e" stroke-width="2.5" fill="none" stroke-dasharray="1.5 8"></path></g><g stroke-opacity="0.4" fill-opacity="0.4" transform="translate(598.848865327381 1155.451583377899) rotate(0 40 12.5)"><text x="40" y="0" font-family="HanziPen SC, HanziPen Remote, Virgil, KaiTi, Segoe UI Emoji" font-size="20px" fill="#1e1e1e" text-anchor="middle" style="white-space: pre;" direction="ltr" dominant-baseline="text-before-edge">等待超时</text></g><g stroke-linecap="round" transform="translate(903.2739508829461 1268.6327642625677) rotate(0 75.5 34.5)"><path d="M17.25 0 M17.25 0 C43.09 2.52, 77.1 4.94, 133.75 0 M17.25 0 C51.98 0.51, 90.28 -1.29, 133.75 0 M133.75 0 C146.69 -1.33, 147.5 5.33, 151 17.25 M133.75 0 C142.83 1.18, 153.72 10, 151 17.25 M151 17.25 C153.99 23.8, 155.22 33.61, 151 51.75 M151 17.25 C149.41 25, 150.2 35.29, 151 51.75 M151 51.75 C152.08 62.09, 144.48 72.55, 133.75 69 M151 51.75 C148.43 60.06, 147.77 64.75, 133.75 69 M133.75 69 C96.78 70.7, 66.08 71.79, 17.25 69 M133.75 69 C98.04 69.69, 63.38 69.76, 17.25 69 M17.25 69 C7.55 69.87, -0.56 63.06, 0 51.75 M17.25 69 C7 64.48, 2.35 64.18, 0 51.75 M0 51.75 C-2.63 40.67, 1 29.71, 0 17.25 M0 51.75 C1.74 40.49, -0.53 25.28, 0 17.25 M0 17.25 C-3.48 7.19, 8.32 1.03, 17.25 0 M0 17.25 C0.98 9.42, 2.81 0.92, 17.25 0" stroke="#1e1e1e" stroke-width="2" fill="none"></path></g><g transform="translate(908.7539618692742 1273.9569439711245) rotate(0 70.01998901367188 29.1758202914433)"><text x="70.01998901367188" y="0" font-family="HanziPen SC, HanziPen Remote, Virgil, KaiTi, Segoe UI Emoji" font-size="46.68131246630931px" fill="#1e1e1e" text-anchor="middle" style="white-space: pre;" direction="ltr" dominant-baseline="text-before-edge">接收态</text></g><g stroke-linecap="round"><g transform="translate(724.3570643833705 1316.6541702049988) rotate(0 87.08581168845296 4.334993372902261)"><path d="M1.96 1.1 C30.38 2.87, 140.81 7.98, 169.53 9.45 M-0.43 -0.78 C28.94 0.32, 145.57 4.45, 174.6 5.52" stroke="#1e1e1e" stroke-width="2" fill="none"></path></g><g transform="translate(724.3570643833705 1316.6541702049988) rotate(0 87.08581168845296 4.334993372902261)"><path d="M147.62 11.24 C156.52 15.23, 164.66 7.81, 173.41 6.45 M145.16 15.99 C153.97 11.98, 161.09 10.5, 172.94 4.51" stroke="#1e1e1e" stroke-width="2" fill="none"></path></g><g transform="translate(724.3570643833705 1316.6541702049988) rotate(0 87.08581168845296 4.334993372902261)"><path d="M148.36 -9.27 C156.9 0.14, 164.84 -1.87, 173.41 6.45 M145.9 -4.52 C154.52 -3.7, 161.46 -0.35, 172.94 4.51" stroke="#1e1e1e" stroke-width="2" fill="none"></path></g></g><mask></mask><g stroke-opacity="0.4" fill-opacity="0.4" stroke-linecap="round" transform="translate(743.3570643833705 1273.1737598237542) rotate(0 65 17.5)"><path d="M8.75 0 M8.75 0 C37.34 -5.88, 66.18 -1.76, 121.25 0 M121.25 0 C123.44 -1.99, 131.58 -0.02, 130 8.75 M130 8.75 C126.78 14.37, 133.57 13.4, 130 26.25 M130 26.25 C132.23 30.26, 128.24 34.27, 121.25 35 M121.25 35 C90.09 34.71, 66.46 30.66, 8.75 35 M8.75 35 C3.82 35.56, -2.44 28.95, 0 26.25 M0 26.25 C-1.36 22.25, -1.76 18.06, 0 8.75 M0 8.75 C1.12 0.81, 4.35 2.3, 8.75 0" stroke="#1e1e1e" stroke-width="2.5" fill="none" stroke-dasharray="1.5 8"></path></g><g stroke-opacity="0.4" fill-opacity="0.4" transform="translate(748.3570643833705 1278.1737598237542) rotate(0 60 12.5)"><text x="60" y="0" font-family="HanziPen SC, HanziPen Remote, Virgil, KaiTi, Segoe UI Emoji" font-size="20px" fill="#1e1e1e" text-anchor="middle" style="white-space: pre;" direction="ltr" dominant-baseline="text-before-edge">存在接收数据</text></g><g stroke-linecap="round"><g transform="translate(965.957039969308 1257.8737109956292) rotate(0 -226.54059058710925 -102.41027040473524)"><path d="M-1.77 2.73 C-12.02 -28.76, 12.55 -154.09, -62.73 -186.81 C-138 -219.53, -388.83 -192.22, -453.41 -193.58 M2.47 1.74 C-7.86 -30.72, 12.5 -157.49, -63.84 -190.74 C-140.18 -224, -390.05 -197.61, -455.55 -197.79" stroke="#1e1e1e" stroke-width="2" fill="none"></path></g><g transform="translate(965.957039969308 1257.8737109956292) rotate(0 -226.54059058710925 -102.41027040473524)"><path d="M-423.98 -206.41 C-431.97 -207.62, -438.46 -200.05, -454.07 -196.99 M-426.6 -208.19 C-440.63 -205.3, -448.62 -200.66, -456.16 -198.55" stroke="#1e1e1e" stroke-width="2" fill="none"></path></g><g transform="translate(965.957039969308 1257.8737109956292) rotate(0 -226.54059058710925 -102.41027040473524)"><path d="M-423.01 -185.91 C-431.57 -192.4, -438.31 -190.11, -454.07 -196.99 M-425.63 -187.69 C-440.23 -192.88, -448.6 -196.31, -456.16 -198.55" stroke="#1e1e1e" stroke-width="2" fill="none"></path></g></g><mask></mask><g stroke-opacity="0.4" fill-opacity="0.4" stroke-linecap="round" transform="translate(736.957039969308 1004.3737415132072) rotate(0 65 21.5)"><path d="M10.75 0 M10.75 0 C48.93 -0.82, 85.43 1.17, 119.25 0 M119.25 0 C126.81 2.66, 127.61 0.16, 130 10.75 M130 10.75 C130.25 17.94, 129.07 26.58, 130 32.25 M130 32.25 C126.5 42.5, 124.71 46.6, 119.25 43 M119.25 43 C95.88 44.6, 71.36 44.58, 10.75 43 M10.75 43 C2.82 45.83, 3.22 42.94, 0 32.25 M0 32.25 C-1.54 27.44, -3.39 20.98, 0 10.75 M0 10.75 C-3.9 5.45, 2.42 0.1, 10.75 0" stroke="#1e1e1e" stroke-width="2.5" fill="none" stroke-dasharray="1.5 8"></path></g><g stroke-opacity="0.4" fill-opacity="0.4" transform="translate(761.957039969308 1013.3737415132072) rotate(0 40 12.5)"><text x="40" y="0" font-family="HanziPen SC, HanziPen Remote, Virgil, KaiTi, Segoe UI Emoji" font-size="20px" fill="#1e1e1e" text-anchor="middle" style="white-space: pre;" direction="ltr" dominant-baseline="text-before-edge">处理完成</text></g><g stroke-linecap="round"><g transform="translate(569.957039969308 1351.473747616723) rotate(0 68.09432545013556 37.50197396290008)"><path d="M-0.06 -1.64 C1.74 10.31, -10.13 73.58, 13.28 74.16 C36.69 74.75, 118.79 13.86, 140.42 1.85 M-3.54 3.64 C-2.15 17.26, -11.49 78.72, 12.17 77.66 C35.83 76.61, 116.28 10.73, 138.4 -2.67" stroke="#1e1e1e" stroke-width="2" fill="none"></path></g><g transform="translate(569.957039969308 1351.473747616723) rotate(0 68.09432545013556 37.50197396290008)"><path d="M118.99 24.97 C127.2 11.86, 136.82 6.03, 141.43 -0.35 M123.01 23.99 C124.75 16.45, 129.22 10.95, 137.14 -2.71" stroke="#1e1e1e" stroke-width="2" fill="none"></path></g><g transform="translate(569.957039969308 1351.473747616723) rotate(0 68.09432545013556 37.50197396290008)"><path d="M107.12 8.22 C120.25 1.63, 134.49 2.32, 141.43 -0.35 M111.15 7.25 C115.89 3.93, 123.2 2.44, 137.14 -2.71" stroke="#1e1e1e" stroke-width="2" fill="none"></path></g></g><mask></mask><g stroke-opacity="0.4" fill-opacity="0.4" stroke-linecap="round" transform="translate(433.9571010044642 1373.3737720307852) rotate(0 63 23.5)"><path d="M11.75 0 M11.75 0 C48.82 -0.2, 82.32 2.92, 114.25 0 M114.25 0 C123.11 3.11, 129.96 7.19, 126 11.75 M126 11.75 C124.17 21.99, 123.95 27.73, 126 35.25 M126 35.25 C123.55 41.01, 121.36 45.36, 114.25 47 M114.25 47 C78.13 42.45, 35.17 46.39, 11.75 47 M11.75 47 C1.54 47.7, -3.09 42.48, 0 35.25 M0 35.25 C-3.5 26.97, 0.31 23.02, 0 11.75 M0 11.75 C2.5 7.72, 4.1 -3.47, 11.75 0" stroke="#1e1e1e" stroke-width="2.5" fill="none" stroke-dasharray="1.5 8"></path></g><g stroke-opacity="0.4" fill-opacity="0.4" transform="translate(446.9571010044642 1384.3737720307852) rotate(0 50 12.5)"><text x="50" y="0" font-family="HanziPen SC, HanziPen Remote, Virgil, KaiTi, Segoe UI Emoji" font-size="20px" fill="#1e1e1e" text-anchor="middle" style="white-space: pre;" direction="ltr" dominant-baseline="text-before-edge">等待未超时</text></g><g stroke-linecap="round"><g transform="translate(905.8627145191722 1353.371798067885) rotate(0 67.9723003612155 34.59885598456117)"><path d="M1.89 -2.53 C3.72 9.72, -10.81 75.14, 12.08 75.36 C34.96 75.57, 118.19 12.01, 139.19 -1.25 M-0.53 2.26 C0.91 13.48, -12.74 72.27, 10.32 70.86 C33.37 69.46, 116.45 6.08, 137.82 -6.16" stroke="#1e1e1e" stroke-width="2" fill="none"></path></g><g transform="translate(905.8627145191722 1353.371798067885) rotate(0 67.9723003612155 34.59885598456117)"><path d="M116.45 19.28 C127.14 10.72, 133.43 0.96, 135.23 -6 M121.98 18.65 C126.59 11.1, 129.38 3.79, 139.18 -5.52" stroke="#1e1e1e" stroke-width="2" fill="none"></path></g><g transform="translate(905.8627145191722 1353.371798067885) rotate(0 67.9723003612155 34.59885598456117)"><path d="M105.05 2.22 C119.83 -0.71, 129.99 -4.69, 135.23 -6 M110.58 1.58 C118.78 -1, 125.01 -3.16, 139.18 -5.52" stroke="#1e1e1e" stroke-width="2" fill="none"></path></g></g><mask></mask><g stroke-opacity="0.4" fill-opacity="0.4" stroke-linecap="round" transform="translate(770.156991141183 1367.173759823754) rotate(0 63 17.5)"><path d="M8.75 0 M8.75 0 C48.82 -0.98, 87.31 -4.96, 117.25 0 M117.25 0 C119.76 -0.4, 122.91 5.24, 126 8.75 M126 8.75 C128.22 17.11, 122.91 17.05, 126 26.25 M126 26.25 C126.49 34.5, 124.13 36.71, 117.25 35 M117.25 35 C89.03 32.15, 65.39 30.43, 8.75 35 M8.75 35 C5.01 36.93, 2.25 28.9, 0 26.25 M0 26.25 C-3.39 17.13, -0.46 13.61, 0 8.75 M0 8.75 C0.81 1.11, 0.43 -1.03, 8.75 0" stroke="#1e1e1e" stroke-width="2.5" fill="none" stroke-dasharray="1.5 8"></path></g><g stroke-opacity="0.4" fill-opacity="0.4" transform="translate(783.156991141183 1372.173759823754) rotate(0 50 12.5)"><text x="50" y="0" font-family="HanziPen SC, HanziPen Remote, Virgil, KaiTi, Segoe UI Emoji" font-size="20px" fill="#1e1e1e" text-anchor="middle" style="white-space: pre;" direction="ltr" dominant-baseline="text-before-edge">未有完整帧</text></g><g transform="translate(434.1070992606026 843.2380821591336) rotate(0 153.19496154785156 27.357134137834834)"><text x="0" y="0" font-family="HanziPen SC, HanziPen Remote, Virgil, KaiTi, Segoe UI Emoji" font-size="43.77141462053574px" fill="#1e1e1e" text-anchor="start" style="white-space: pre;" direction="ltr" dominant-baseline="text-before-edge">主机状态机流转</text></g><g stroke-linecap="round" transform="translate(366.0014303635078 219.4309406182375) rotate(0 113 42)"><path d="M21 0 M21 0 C75.35 -2.97, 126.92 -5.17, 205 0 M21 0 C81.57 -2.82, 144.06 -5.12, 205 0 M205 0 C217.29 -2.09, 229.19 4.6, 226 21 M205 0 C223.01 -1.25, 223.82 10.88, 226 21 M226 21 C222.13 32.35, 223.76 50.43, 226 63 M226 21 C228 37.14, 227.85 52.76, 226 63 M226 63 C223.28 76.13, 218.22 85.4, 205 84 M226 63 C222.15 73.17, 222.78 79.62, 205 84 M205 84 C151.74 84.63, 92.04 79.03, 21 84 M205 84 C148.68 86.94, 91.58 86.57, 21 84 M21 84 C5.09 84.4, -1.86 78.99, 0 63 M21 84 C3.98 81.57, -3.12 72.44, 0 63 M0 63 C1.84 49.95, -2.88 43.16, 0 21 M0 63 C2.03 49.45, -1.35 36.91, 0 21 M0 21 C3.19 4.82, 3.95 -2.53, 21 0 M0 21 C-4.38 11.15, 10.66 -0.09, 21 0" stroke="#1e1e1e" stroke-width="2" fill="none"></path></g><g transform="translate(408.9814413498359 232.2551203267942) rotate(0 70.01998901367188 29.1758202914433)"><text x="70.01998901367188" y="0" font-family="HanziPen SC, HanziPen Remote, Virgil, KaiTi, Segoe UI Emoji" font-size="46.68131246630931px" fill="#1e1e1e" text-anchor="middle" style="white-space: pre;" direction="ltr" dominant-baseline="text-before-edge">空闲态</text></g><g stroke-linecap="round" transform="translate(220.42644867405465 488.15343798412346) rotate(0 86 46)"><path d="M23 0 M23 0 C63.15 4.02, 104.32 -0.14, 149 0 M23 0 C63.32 1.18, 106.94 1.02, 149 0 M149 0 C167.82 -1.09, 170.11 11.04, 172 23 M149 0 C167 -2.69, 168.25 3.79, 172 23 M172 23 C174.3 33.09, 170.86 45.92, 172 69 M172 23 C171.44 38, 172.41 54.57, 172 69 M172 69 C168.65 81.01, 167.62 88.2, 149 92 M172 69 C172.2 81.31, 160.56 95.17, 149 92 M149 92 C99.88 91.13, 52.51 90.1, 23 92 M149 92 C103.88 93.01, 59.73 93.81, 23 92 M23 92 C5.04 89.88, -2.72 80.37, 0 69 M23 92 C5.03 91.5, 2.1 86.35, 0 69 M0 69 C0.67 57.7, 1.04 51.7, 0 23 M0 69 C2.29 56.34, -0.83 44.59, 0 23 M0 23 C-3.81 11.27, 10.85 -0.08, 23 0 M0 23 C1.76 5.65, 9.05 1.82, 23 0" stroke="#1e1e1e" stroke-width="2" fill="none"></path></g><g transform="translate(236.40645966038278 504.97761769268016) rotate(0 70.01998901367188 29.175820291443316)"><text x="70.01998901367188" y="0" font-family="HanziPen SC, HanziPen Remote, Virgil, KaiTi, Segoe UI Emoji" font-size="46.68131246630931px" fill="#1e1e1e" text-anchor="middle" style="white-space: pre;" direction="ltr" dominant-baseline="text-before-edge">发送态</text></g><g stroke-linecap="round"><g transform="translate(384.08308813456597 304.94445413175106) rotate(0 -43.68702690832126 90.84773516942943)"><path d="M-0.92 0.75 C-15.68 30.19, -71.93 149.31, -86.53 179.22 M3.77 -1.31 C-11.46 29.6, -72.52 150.87, -88.32 181.51" stroke="#1e1e1e" stroke-width="2" fill="none"></path></g><g transform="translate(384.08308813456597 304.94445413175106) rotate(0 -43.68702690832126 90.84773516942943)"><path d="M-83.61 152.93 C-89.02 161.05, -88.93 177, -90.72 185 M-83.53 150.56 C-87.59 158.23, -88.79 167.17, -88.63 182.86" stroke="#1e1e1e" stroke-width="2" fill="none"></path></g><g transform="translate(384.08308813456597 304.94445413175106) rotate(0 -43.68702690832126 90.84773516942943)"><path d="M-65.32 162.23 C-77.68 166.78, -84.38 179.28, -90.72 185 M-65.23 159.87 C-74.2 165.3, -80.39 171.7, -88.63 182.86" stroke="#1e1e1e" stroke-width="2" fill="none"></path></g></g><mask></mask><g stroke-opacity="0.4" fill-opacity="0.4" stroke-linecap="round" transform="translate(183.10964239211285 344.6801033625534) rotate(0 67.5 35)"><path d="M17.5 0 M17.5 0 C40.68 -2.31, 68.82 2.59, 117.5 0 M117.5 0 C126.76 3.49, 133.91 3.94, 135 17.5 M135 17.5 C132.14 27.58, 131.72 42.65, 135 52.5 M135 52.5 C134.37 66.86, 129.69 69.27, 117.5 70 M117.5 70 C79.82 69.02, 37.71 70.96, 17.5 70 M17.5 70 C7.23 66.65, -3.33 67.45, 0 52.5 M0 52.5 C-3.31 48.09, 3.62 37.22, 0 17.5 M0 17.5 C-1.95 6, 6.19 2.09, 17.5 0" stroke="#1e1e1e" stroke-width="2.5" fill="none" stroke-dasharray="1.5 8"></path></g><g stroke-opacity="0.4" fill-opacity="0.4" transform="translate(192.91967046828472 354.6801033625534) rotate(0 57.689971923828125 25)"><text x="57.689971923828125" y="0" font-family="HanziPen SC, HanziPen Remote, Virgil, KaiTi, Segoe UI Emoji" font-size="20px" fill="#1e1e1e" text-anchor="middle" style="white-space: pre;" direction="ltr" dominant-baseline="text-before-edge">发送buffer不</text><text x="57.689971923828125" y="25" font-family="HanziPen SC, HanziPen Remote, Virgil, KaiTi, Segoe UI Emoji" font-size="20px" fill="#1e1e1e" text-anchor="middle" style="white-space: pre;" direction="ltr" dominant-baseline="text-before-edge">为空</text></g><g stroke-linecap="round"><g transform="translate(340.1644890130774 486.6399244706099) rotate(0 48.95959981148047 -90.84773516942943)"><path d="M-1.32 2.36 C14.86 -28.07, 83.38 -152.26, 99.54 -183.33 M3.15 1.17 C18.89 -28.85, 81.84 -150.02, 98.19 -180.59" stroke="#1e1e1e" stroke-width="2" fill="none"></path></g><g transform="translate(340.1644890130774 486.6399244706099) rotate(0 48.95959981148047 -90.84773516942943)"><path d="M97.51 -148.54 C93.53 -165.6, 94.06 -177.53, 96.44 -181.22 M96.03 -150.15 C97.29 -160.88, 95.68 -173.13, 97.8 -179.89" stroke="#1e1e1e" stroke-width="2" fill="none"></path></g><g transform="translate(340.1644890130774 486.6399244706099) rotate(0 48.95959981148047 -90.84773516942943)"><path d="M79.35 -158.1 C82.35 -171.28, 89.91 -179.51, 96.44 -181.22 M77.87 -159.71 C85.83 -166.86, 90.89 -175.59, 97.8 -179.89" stroke="#1e1e1e" stroke-width="2" fill="none"></path></g></g><mask></mask><g stroke-opacity="0.4" fill-opacity="0.4" stroke-linecap="round" transform="translate(372.44888450985854 414.5086970253601) rotate(0 63 23.5)"><path d="M11.75 0 M11.75 0 C35.32 -4.45, 60.18 -4.87, 114.25 0 M114.25 0 C120.34 -0.63, 128.7 4.44, 126 11.75 M126 11.75 C129.92 20.15, 123.73 24.12, 126 35.25 M126 35.25 C125.22 44.48, 118.74 43.67, 114.25 47 M114.25 47 C72.45 43.81, 38.66 50.74, 11.75 47 M11.75 47 C2.98 45.05, 0.17 43.44, 0 35.25 M0 35.25 C-2.83 28.26, -1.83 19.09, 0 11.75 M0 11.75 C-1.86 5.91, 1.29 -2.12, 11.75 0" stroke="#1e1e1e" stroke-width="2.5" fill="none" stroke-dasharray="1.5 8"></path></g><g stroke-opacity="0.4" fill-opacity="0.4" transform="translate(395.44888450985854 425.5086970253601) rotate(0 40 12.5)"><text x="40" y="0" font-family="HanziPen SC, HanziPen Remote, Virgil, KaiTi, Segoe UI Emoji" font-size="20px" fill="#1e1e1e" text-anchor="middle" style="white-space: pre;" direction="ltr" dominant-baseline="text-before-edge">发送成功</text></g><g stroke-linecap="round"><g transform="translate(207.45084841252606 557.3354746148499) rotate(0 -51.836329067157095 -31.06355795539031)"><path d="M-2.58 -1.22 C-21.51 -1.93, -118.3 3.64, -115.85 -6.6 C-113.4 -16.83, -9.61 -53.55, 12.1 -62.64 M1.22 4.28 C-17.92 3.01, -119.87 0.1, -118.33 -10.58 C-116.78 -21.27, -10.52 -51.91, 10.49 -59.81" stroke="#1e1e1e" stroke-width="2" fill="none"></path></g><g transform="translate(207.45084841252606 557.3354746148499) rotate(0 -51.836329067157095 -31.06355795539031)"><path d="M-14.83 -41.89 C-4.93 -44.35, -3.21 -45.14, 11.91 -56.33 M-13.47 -40.56 C-6.38 -49.21, 5.06 -55.85, 10.58 -61.13" stroke="#1e1e1e" stroke-width="2" fill="none"></path></g><g transform="translate(207.45084841252606 557.3354746148499) rotate(0 -51.836329067157095 -31.06355795539031)"><path d="M-21.24 -61.39 C-10.26 -59.47, -7.15 -56, 11.91 -56.33 M-19.88 -60.05 C-10.85 -61.96, 2.8 -61.88, 10.58 -61.13" stroke="#1e1e1e" stroke-width="2" fill="none"></path></g></g><mask></mask><g stroke-opacity="0.4" fill-opacity="0.4" stroke-linecap="round" transform="translate(76.70957438151027 568.3800458151202) rotate(0 63 23.5)"><path d="M11.75 0 M11.75 0 C35.76 0.85, 53.64 4.11, 114.25 0 M114.25 0 C123.5 3.48, 127.79 1.2, 126 11.75 M126 11.75 C122.56 14.96, 129.2 21.03, 126 35.25 M126 35.25 C126.18 40.45, 118.8 49.76, 114.25 47 M114.25 47 C74.32 46.36, 36.14 45.33, 11.75 47 M11.75 47 C5.94 44.09, 1.29 41.17, 0 35.25 M0 35.25 C-2.41 25.85, -2.5 16.72, 0 11.75 M0 11.75 C-2.29 3.48, 5.74 1.75, 11.75 0" stroke="#1e1e1e" stroke-width="2.5" fill="none" stroke-dasharray="1.5 8"></path></g><g stroke-opacity="0.4" fill-opacity="0.4" transform="translate(99.70957438151027 579.3800458151202) rotate(0 40 12.5)"><text x="40" y="0" font-family="HanziPen SC, HanziPen Remote, Virgil, KaiTi, Segoe UI Emoji" font-size="20px" fill="#1e1e1e" text-anchor="middle" style="white-space: pre;" direction="ltr" dominant-baseline="text-before-edge">发送失败</text></g><g stroke-linecap="round" transform="translate(629.5597436424325 480.91834557883465) rotate(0 86.5 45)"><path d="M22.5 0 M22.5 0 C53.61 -2.85, 78.59 3.79, 150.5 0 M22.5 0 C47.08 3.06, 76.78 1.22, 150.5 0 M150.5 0 C163.55 0.17, 173.36 9.59, 173 22.5 M150.5 0 C164.73 2.33, 169.65 8.99, 173 22.5 M173 22.5 C175.08 31.22, 170.97 42.49, 173 67.5 M173 22.5 C173.4 32.41, 171.06 39.09, 173 67.5 M173 67.5 C173.55 82.48, 164.73 90.36, 150.5 90 M173 67.5 C177.3 80.27, 162.03 87.87, 150.5 90 M150.5 90 C99.36 84.24, 56.88 91.23, 22.5 90 M150.5 90 C112.96 89.67, 75.96 88.42, 22.5 90 M22.5 90 C5.55 91.04, -0.13 84.44, 0 67.5 M22.5 90 C5.52 89.29, 2.25 79.23, 0 67.5 M0 67.5 C1.54 48.1, 1.52 31.58, 0 22.5 M0 67.5 C-1.78 50.08, -2.6 36.19, 0 22.5 M0 22.5 C-2.39 11.41, 9.36 3.36, 22.5 0 M0 22.5 C-2.24 6.91, 9.39 -2.53, 22.5 0" stroke="#1e1e1e" stroke-width="2" fill="none"></path></g><g transform="translate(646.0397546287606 496.74252528739135) rotate(0 70.01998901367188 29.175820291443316)"><text x="70.01998901367188" y="0" font-family="HanziPen SC, HanziPen Remote, Virgil, KaiTi, Segoe UI Emoji" font-size="46.68131246630931px" fill="#1e1e1e" text-anchor="middle" style="white-space: pre;" direction="ltr" dominant-baseline="text-before-edge">接收态</text></g><g stroke-opacity="0.4" fill-opacity="0.4" stroke-linecap="round" transform="translate(682.2143554687495 342.60219828287825) rotate(0 65 30)"><path d="M15 0 M15 0 C50.59 -3.37, 94.19 3.56, 115 0 M115 0 C124.07 -1.95, 130.17 5.36, 130 15 M130 15 C126.99 26.86, 127.99 36.54, 130 45 M130 45 C128.14 56.99, 122.37 57.88, 115 60 M115 60 C91.35 60.68, 70.33 56.01, 15 60 M15 60 C2.03 60.55, -0.02 54.23, 0 45 M0 45 C-3.58 33.87, 2.63 24.28, 0 15 M0 15 C-3.05 2.47, 1.19 3.61, 15 0" stroke="#1e1e1e" stroke-width="2.5" fill="none" stroke-dasharray="1.5 8"></path></g><g stroke-opacity="0.4" fill-opacity="0.4" transform="translate(689.5243835449214 347.60219828287825) rotate(0 57.689971923828125 25)"><text x="57.689971923828125" y="0" font-family="HanziPen SC, HanziPen Remote, Virgil, KaiTi, Segoe UI Emoji" font-size="20px" fill="#1e1e1e" text-anchor="middle" style="white-space: pre;" direction="ltr" dominant-baseline="text-before-edge">接收buffer不</text><text x="57.689971923828125" y="25" font-family="HanziPen SC, HanziPen Remote, Virgil, KaiTi, Segoe UI Emoji" font-size="20px" fill="#1e1e1e" text-anchor="middle" style="white-space: pre;" direction="ltr" dominant-baseline="text-before-edge">为空</text></g><g stroke-opacity="0.4" fill-opacity="0.4" stroke-linecap="round" transform="translate(515.8141566685267 406.37367829822415) rotate(0 65 21.5)"><path d="M10.75 0 M10.75 0 C53.37 1.41, 97.74 0.39, 119.25 0 M119.25 0 C128.44 -2.91, 131.29 1.67, 130 10.75 M130 10.75 C127.17 15.3, 127.08 20.11, 130 32.25 M130 32.25 C127.71 38.98, 128.24 44.75, 119.25 43 M119.25 43 C94.41 42.52, 69.97 47.04, 10.75 43 M10.75 43 C1.64 39.98, -1.86 42.61, 0 32.25 M0 32.25 C-3.48 30.58, 3.51 21.61, 0 10.75 M0 10.75 C1.53 1.83, 4.78 1.58, 10.75 0" stroke="#1e1e1e" stroke-width="2.5" fill="none" stroke-dasharray="1.5 8"></path></g><g stroke-opacity="0.4" fill-opacity="0.4" transform="translate(540.8141566685267 415.37367829822415) rotate(0 40 12.5)"><text x="40" y="0" font-family="HanziPen SC, HanziPen Remote, Virgil, KaiTi, Segoe UI Emoji" font-size="20px" fill="#1e1e1e" text-anchor="middle" style="white-space: pre;" direction="ltr" dominant-baseline="text-before-edge">处理完成</text></g><g stroke-linecap="round"><g transform="translate(814.5166293732386 555.8313918490844) rotate(0 64.1303005249755 -27.320355698020023)"><path d="M-1.31 1.39 C19.99 0.85, 125.8 6.83, 126.42 -2.97 C127.04 -12.77, 23.02 -48.75, 2.4 -57.42 M3.18 -0.32 C25.5 -0.53, 130.99 9.1, 131.82 -0.14 C132.66 -9.39, 29.77 -47.09, 8.2 -55.81" stroke="#1e1e1e" stroke-width="2" fill="none"></path></g><g transform="translate(814.5166293732386 555.8313918490844) rotate(0 64.1303005249755 -27.320355698020023)"><path d="M40.18 -57.8 C28.51 -58.33, 19.09 -58.07, 7.76 -53.99 M38.47 -55.18 C27.5 -55.66, 19.45 -57.03, 6.69 -56.74" stroke="#1e1e1e" stroke-width="2" fill="none"></path></g><g transform="translate(814.5166293732386 555.8313918490844) rotate(0 64.1303005249755 -27.320355698020023)"><path d="M32.76 -38.67 C22.92 -43.96, 15.37 -48.52, 7.76 -53.99 M31.04 -36.05 C22.9 -43, 17.4 -50.94, 6.69 -56.74" stroke="#1e1e1e" stroke-width="2" fill="none"></path></g></g><mask></mask><g stroke-opacity="0.4" fill-opacity="0.4" stroke-linecap="round" transform="translate(822.156982421875 570.316536313012) rotate(0 63 17.5)"><path d="M8.75 0 M8.75 0 C34.13 -1.29, 59.77 -0.86, 117.25 0 M117.25 0 C122.65 1.83, 127.75 0.07, 126 8.75 M126 8.75 C125.37 13.01, 129.32 14.95, 126 26.25 M126 26.25 C122.98 30.23, 126.27 32.82, 117.25 35 M117.25 35 C96.57 36.11, 68.6 34.46, 8.75 35 M8.75 35 C1.16 36.2, 1.58 35.57, 0 26.25 M0 26.25 C0.06 23.1, -1.34 16.02, 0 8.75 M0 8.75 C1.95 0.08, 6.83 0.2, 8.75 0" stroke="#1e1e1e" stroke-width="2.5" fill="none" stroke-dasharray="1.5 8"></path></g><g stroke-opacity="0.4" fill-opacity="0.4" transform="translate(835.156982421875 575.316536313012) rotate(0 50 12.5)"><text x="50" y="0" font-family="HanziPen SC, HanziPen Remote, Virgil, KaiTi, Segoe UI Emoji" font-size="20px" fill="#1e1e1e" text-anchor="middle" style="white-space: pre;" direction="ltr" dominant-baseline="text-before-edge">未有完整帧</text></g><g transform="translate(344.39291817801313 59.333241780599565) rotate(0 153.19496154785156 27.357134137834805)"><text x="0" y="0" font-family="HanziPen SC, HanziPen Remote, Virgil, KaiTi, Segoe UI Emoji" font-size="43.77141462053574px" fill="#1e1e1e" text-anchor="start" style="white-space: pre;" direction="ltr" dominant-baseline="text-before-edge">从机状态机流转</text></g><g stroke-linecap="round"><g transform="translate(604.8539422371144 305.93985508221476) rotate(0 64.64907497805024 83.60891069174477)"><path d="M1.62 0.8 C23.31 28.67, 107.33 136.48, 128.88 164.5 M-0.94 -1.24 C20.45 27.12, 104.6 139.06, 126.42 166.66" stroke="#1e1e1e" stroke-width="2" fill="none"></path></g><g transform="translate(604.8539422371144 305.93985508221476) rotate(0 64.64907497805024 83.60891069174477)"><path d="M102.25 149.96 C103.36 156.68, 116.16 156.55, 128.38 165.55 M101.16 150.12 C107.85 155.44, 113.44 158.24, 128.29 167.31" stroke="#1e1e1e" stroke-width="2" fill="none"></path></g><g transform="translate(604.8539422371144 305.93985508221476) rotate(0 64.64907497805024 83.60891069174477)"><path d="M118.52 137.46 C115.25 147.55, 123.9 150.6, 128.38 165.55 M117.44 137.62 C119.99 146.23, 121.63 152.07, 128.29 167.31" stroke="#1e1e1e" stroke-width="2" fill="none"></path></g></g><mask></mask><g stroke-linecap="round"><g transform="translate(695.8074980807605 470.85235414331294) rotate(0 -52.829875331870426 -76.58083189948798)"><path d="M-1.31 -2.06 C-18.9 -27.6, -85.46 -129.88, -102.94 -154.84 M3.18 3 C-14.78 -22.07, -85.13 -125.51, -103.71 -152.13" stroke="#1e1e1e" stroke-width="2" fill="none"></path></g><g transform="translate(695.8074980807605 470.85235414331294) rotate(0 -52.829875331870426 -76.58083189948798)"><path d="M-82.21 -130.84 C-91.08 -142.54, -96.42 -144.95, -101.95 -151.36 M-78.27 -135.31 C-87.46 -141.31, -94.62 -145.84, -102.5 -150.9" stroke="#1e1e1e" stroke-width="2" fill="none"></path></g><g transform="translate(695.8074980807605 470.85235414331294) rotate(0 -52.829875331870426 -76.58083189948798)"><path d="M-99.11 -119.21 C-101.21 -135.32, -99.89 -142.3, -101.95 -151.36 M-95.17 -123.67 C-99.37 -132.71, -101.68 -140.57, -102.5 -150.9" stroke="#1e1e1e" stroke-width="2" fill="none"></path></g></g><mask></mask><g stroke-linecap="round"><g transform="translate(373.42851911272305 208.8571384974889) rotate(0 88.57142857142867 -25.71424211774547)"><path d="M2.22 0.44 C5.43 -8.29, -11.89 -49.78, 16.82 -50.17 C45.52 -50.56, 148 -10.21, 174.45 -1.91 M-0.02 -1.78 C4.34 -11.56, -7.56 -54.82, 22.42 -54.5 C52.39 -54.17, 154.35 -9.26, 179.82 0.16" stroke="#1e1e1e" stroke-width="2" fill="none"></path></g><g transform="translate(373.42851911272305 208.8571384974889) rotate(0 88.57142857142867 -25.71424211774547)"><path d="M150.47 -2.93 C158.04 -4.94, 159.89 -3.18, 179.29 0.53 M150.47 -2.36 C158.09 -1.41, 169.81 2.31, 179.89 2.07" stroke="#1e1e1e" stroke-width="2" fill="none"></path></g><g transform="translate(373.42851911272305 208.8571384974889) rotate(0 88.57142857142867 -25.71424211774547)"><path d="M158.13 -21.97 C164.36 -19.8, 164.59 -13.99, 179.29 0.53 M158.12 -21.4 C163.07 -14.47, 172.33 -4.63, 179.89 2.07" stroke="#1e1e1e" stroke-width="2" fill="none"></path></g></g><mask></mask><g stroke-opacity="0.4" fill-opacity="0.4" stroke-linecap="round" transform="translate(238.42857142857133 156.49997820172996) rotate(0 63 30)"><path d="M15 0 M15 0 C42.51 4.73, 72.64 0.17, 111 0 M111 0 C121.16 -2.14, 123.36 4.81, 126 15 M126 15 C126.33 24.02, 122.87 33.01, 126 45 M126 45 C122.11 58.78, 121.41 61.64, 111 60 M111 60 C87.63 59.44, 61.69 59.09, 15 60 M15 60 C6.21 58.4, -3.87 51.77, 0 45 M0 45 C2.9 33.14, -1.4 26.2, 0 15 M0 15 C2.63 6.73, 5.77 -2.75, 15 0" stroke="#1e1e1e" stroke-width="2.5" fill="none" stroke-dasharray="1.5 8"></path></g><g stroke-opacity="0.4" fill-opacity="0.4" transform="translate(247.5285851614815 161.49997820172996) rotate(0 53.899986267089844 25)"><text x="53.899986267089844" y="0" font-family="HanziPen SC, HanziPen Remote, Virgil, KaiTi, Segoe UI Emoji" font-size="20px" fill="#1e1e1e" text-anchor="middle" style="white-space: pre;" direction="ltr" dominant-baseline="text-before-edge">未达3.5字符</text><text x="53.899986267089844" y="25" font-family="HanziPen SC, HanziPen Remote, Virgil, KaiTi, Segoe UI Emoji" font-size="20px" fill="#1e1e1e" text-anchor="middle" style="white-space: pre;" direction="ltr" dominant-baseline="text-before-edge">超时</text></g><g stroke-opacity="0.4" fill-opacity="0.4" stroke-linecap="round" transform="translate(214.4285016741071 955.4285321916852) rotate(0 63 30)"><path d="M15 0 M15 0 C38.87 -2.3, 67.36 2.82, 111 0 M111 0 C119.85 -0.95, 127.9 1.29, 126 15 M126 15 C125.25 20.64, 126.74 27.75, 126 45 M126 45 C123.79 52.03, 122.16 58.06, 111 60 M111 60 C69.88 57.88, 33.21 61.3, 15 60 M15 60 C1.43 61.16, 0.57 52.87, 0 45 M0 45 C2.39 38.19, 3.3 28.09, 0 15 M0 15 C-1.51 5.99, 6.94 1.65, 15 0" stroke="#1e1e1e" stroke-width="2.5" fill="none" stroke-dasharray="1.5 8"></path></g><g stroke-opacity="0.4" fill-opacity="0.4" transform="translate(223.52851540701727 960.4285321916852) rotate(0 53.899986267089844 25)"><text x="53.899986267089844" y="0" font-family="HanziPen SC, HanziPen Remote, Virgil, KaiTi, Segoe UI Emoji" font-size="20px" fill="#1e1e1e" text-anchor="middle" style="white-space: pre;" direction="ltr" dominant-baseline="text-before-edge">未达3.5字符</text><text x="53.899986267089844" y="25" font-family="HanziPen SC, HanziPen Remote, Virgil, KaiTi, Segoe UI Emoji" font-size="20px" fill="#1e1e1e" text-anchor="middle" style="white-space: pre;" direction="ltr" dominant-baseline="text-before-edge">超时</text></g><g stroke-linecap="round"><g transform="translate(359.2661837094523 1008.1696438988281) rotate(0 63.558658012258206 -22.21117730754706)"><path d="M0.41 -2.5 C3.92 -10.89, -2.49 -52.09, 19.1 -51.03 C40.68 -49.96, 111.56 -5.63, 129.94 3.89 M-2.82 2.31 C0.58 -5.49, -4.39 -47.9, 17.3 -47.18 C38.99 -46.46, 108.74 -1.38, 127.32 6.63" stroke="#1e1e1e" stroke-width="2" fill="none"></path></g><g transform="translate(359.2661837094523 1008.1696438988281) rotate(0 63.558658012258206 -22.21117730754706)"><path d="M94.06 3.44 C104.98 1.06, 110.23 1.19, 129.49 8.56 M96.88 2.77 C108.65 4.62, 116.84 7.14, 126.66 5.54" stroke="#1e1e1e" stroke-width="2" fill="none"></path></g><g transform="translate(359.2661837094523 1008.1696438988281) rotate(0 63.558658012258206 -22.21117730754706)"><path d="M103.8 -14.63 C112.4 -12.84, 115.42 -8.57, 129.49 8.56 M106.62 -15.29 C115.37 -7.38, 120.28 1.21, 126.66 5.54" stroke="#1e1e1e" stroke-width="2" fill="none"></path></g></g><mask></mask></svg>